<svg width="37" height="44" viewBox="0 0 37 44" fill="none" xmlns="http://www.w3.org/2000/svg">
<path fill-rule="evenodd" clip-rule="evenodd" d="M10.6776 35.0393C14.5999 37.9645 20.0655 37.1403 22.9052 33.3326C24.2319 31.5537 25.4737 28.7716 26.5116 25.1478C27.5261 21.6053 28.2288 17.6803 28.7062 13.9378C28.8606 12.7275 28.9898 11.5492 29.0979 10.4244C27.995 10.8776 26.842 11.369 25.6643 11.8954C22.1796 13.4528 18.5945 15.265 15.4909 17.2365C12.3013 19.2626 10.0534 21.1875 8.82632 22.8328C5.98664 26.6405 6.75538 32.1142 10.6776 35.0393ZM29.5959 2.81718C21.4841 5.92858 8.50744 11.7402 3.30545 18.7155C-1.83382 25.6066 -0.376575 35.3868 6.56029 40.5602C13.4972 45.7336 23.2868 44.3411 28.4261 37.4499C33.8247 30.2111 35.6294 16.2984 36.2326 7.72488C36.5404 3.35134 36.5354 0.367218 36.5354 0.367218C36.5354 0.367218 33.6832 1.24941 29.5959 2.81718Z" fill="#F8BD15"/>
</svg>
