<svg width="37" height="43" viewBox="0 0 37 43" fill="none" xmlns="http://www.w3.org/2000/svg">
<path fill-rule="evenodd" clip-rule="evenodd" d="M11.091 35.1121C10.8715 34.9762 10.6559 34.8296 10.4447 34.6721C6.52241 31.747 5.75367 26.2733 8.59335 22.4656C9.82039 20.8203 12.0684 18.8954 15.2579 16.8693C18.3616 14.8978 21.9466 13.0856 25.4313 11.5281C26.609 11.0018 27.762 10.5104 28.865 10.0572C28.7608 11.1403 28.6372 12.2729 28.4903 13.4359C30.9255 12.074 33.4239 10.8397 35.8097 9.74997C35.8835 8.91629 35.9463 8.11609 35.9997 7.35766C36.3074 2.98412 36.3025 0 36.3025 0C36.3025 0 33.4503 0.882187 29.3629 2.44997C21.2511 5.56136 8.27447 11.373 3.07248 18.3483C-2.06679 25.2394 -0.609546 35.0196 6.32732 40.193C8.10142 41.5161 10.0621 42.4097 12.0839 42.8917C11.2658 40.3866 10.9268 37.7434 11.091 35.1121Z" fill="#E57425"/>
</svg>
