<svg width="37" height="43" viewBox="0 0 37 43" fill="none" xmlns="http://www.w3.org/2000/svg">
<path fill-rule="evenodd" clip-rule="evenodd" d="M28.5753 12.7449C28.6857 11.8237 28.7816 10.9246 28.865 10.0572C27.762 10.5104 26.609 11.0018 25.4313 11.5281C21.9466 13.0856 18.3616 14.8978 15.2579 16.8693C12.0684 18.8954 9.82039 20.8203 8.59335 22.4656C5.84012 26.1574 6.47894 31.4152 10.0952 34.398C9.83645 37.1562 10.1341 39.941 10.9601 42.579C9.33741 42.0615 7.77062 41.2694 6.32732 40.193C-0.609546 35.0196 -2.06679 25.2394 3.07248 18.3483C8.27447 11.373 21.2511 5.56136 29.3629 2.44997C33.4503 0.882187 36.3025 0 36.3025 0C36.3025 0 36.3074 2.98412 35.9997 7.35766C35.9584 7.94364 35.9116 8.55456 35.8584 9.18659C35.8005 9.21235 35.7425 9.2382 35.6845 9.26413C33.3891 10.29 30.9651 11.4555 28.5753 12.7449Z" fill="#7A421B"/>
</svg>
