<?xml version="1.0" encoding="utf-8"?>
<!-- Generator: Adobe Illustrator 22.1.0, SVG Export Plug-In . SVG Version: 6.00 Build 0)  -->
<svg version="1.1" id="Layer_1" xmlns="http://www.w3.org/2000/svg" xmlns:xlink="http://www.w3.org/1999/xlink" x="0px" y="0px"
	 viewBox="0 0 32 32" style="enable-background:new 0 0 32 32;" xml:space="preserve">
<style type="text/css">
	.st0{fill:#FFFFFF;}
</style>
<g transform="scale(0.03125 0.03125)">
	<path class="st0" d="M512,0C229.2,0,0,229.2,0,512s229.2,512,512,512s512-229.2,512-512S794.8,0,512,0z M256,256h512
		c9.1,0,18,2,26.1,5.7L512,590.8L229.9,261.7C238,258,246.9,256,256,256z M192,704V320c0-1.3,0.1-2.7,0.1-4l187.7,218.9L194.2,720.5
		C192.8,715.2,192,709.7,192,704z M768,768H256c-5.7,0-11.2-0.8-16.5-2.2l182.1-182.1L512,689.2l90.4-105.5l182.1,182.1
		C779.2,767.2,773.7,768,768,768z M832,704c0,5.7-0.8,11.2-2.2,16.5L644.2,534.9L831.9,316c0.1,1.3,0.1,2.7,0.1,4
		C832,320,832,704,832,704z"/>
</g>
</svg>
