<svg version="1.1" id="Layer_1" xmlns="http://www.w3.org/2000/svg" width="36.3" height="36.4" viewBox="0 0 36.3 36.4">
<style type="text/css">
	.st0{fill:#252525;}
	.st1{fill:url(#path1_fill_1_);}
	.st2{fill:#BED981;}
</style>
<g>
	<g id="Ellipse">
		<g transform="translate(-9 -44)">
			<path id="path0_fill" class="st0" d="M45.2,62.2c0,9.9-8.1,18-18,18s-18-8.1-18-18s8.1-18,18-18S45.2,52.3,45.2,62.2z"/>
		</g>
	</g>
	<g id="Ellipse_1_">
		<g transform="translate(5 -30)">

				<linearGradient id="path1_fill_1_" gradientUnits="userSpaceOnUse" x1="-5.6469" y1="28.9894" x2="-5.0469" y2="28.9894" gradientTransform="matrix(1.959430e-15 32 -32 1.959430e-15 940.8785 219.3035)">
				<stop  offset="0.105" style="stop-color:#AAE171"/>
				<stop  offset="0.8508" style="stop-color:#81AC54"/>
			</linearGradient>
			<path id="path1_fill" class="st1" d="M22.8,48.2c0,5.3-4.3,9.6-9.6,9.6s-9.6-4.3-9.6-9.6s4.3-9.6,9.6-9.6S22.8,42.9,22.8,48.2z"
				/>
		</g>
		<g>
			<g transform="translate(5 -30)">
				<path id="path2_stroke_2x" class="st2" d="M21.6,48.2c0,4.6-3.8,8.4-8.4,8.4V59c6,0,10.8-4.8,10.8-10.8L21.6,48.2L21.6,48.2z
					 M13.2,56.6c-4.6,0-8.4-3.8-8.4-8.4H2.4c0,6,4.8,10.8,10.8,10.8L13.2,56.6L13.2,56.6z M4.8,48.2c0-4.6,3.8-8.4,8.4-8.4v-2.4
					c-6,0-10.8,4.8-10.8,10.8L4.8,48.2L4.8,48.2z M13.2,39.8c4.6,0,8.4,3.8,8.4,8.4H24c0-6-4.8-10.8-10.8-10.8L13.2,39.8L13.2,39.8z
					"/>
			</g>
		</g>
	</g>
</g>
</svg>
