<svg width="170" height="68" viewBox="0 0 170 68" fill="none" xmlns="http://www.w3.org/2000/svg">
<path d="M82.4025 38.3297H87.7022C89.984 40.3824 92.413 41.922 95.0629 42.875C97.6391 43.8281 100.363 44.3413 103.233 44.3413C104.485 44.3413 105.589 44.1947 106.619 43.9747C107.65 43.7548 108.533 43.3882 109.343 42.9484C110.079 42.5085 110.668 42.0686 111.109 41.4821C111.551 40.8956 111.772 40.3091 111.772 39.6493C111.772 38.9162 111.551 38.183 111.036 37.5965C110.52 36.9367 109.784 36.3502 108.754 35.837C107.723 35.3238 106.325 34.884 104.632 34.5174C102.939 34.1508 100.951 33.8576 98.596 33.5643C95.8726 33.2711 93.5172 32.8312 91.6034 32.2447C89.6896 31.5849 88.1438 30.8518 86.8925 29.972C85.6412 29.0923 84.7579 28.0659 84.2427 26.9662C83.6538 25.8665 83.433 24.6935 83.433 23.5205C83.433 22.4208 83.7274 21.3211 84.3899 20.2214C85.0524 19.195 86.0092 18.242 87.3342 17.4355C88.6591 16.6291 90.2048 15.9693 92.1922 15.4561C94.106 14.9429 96.3878 14.723 98.8905 14.723C100.363 14.723 101.761 14.8696 102.939 15.0895C104.19 15.3095 105.294 15.6027 106.325 16.0426C107.355 16.4092 108.312 16.9223 109.195 17.4355C110.079 17.9487 110.888 18.5352 111.698 19.195V15.676H117.513V24.9867H111.698C111.183 24.107 110.52 23.3006 109.711 22.5674C108.901 21.8343 107.944 21.1745 106.84 20.6613C105.736 20.1481 104.558 19.7082 103.307 19.415C102.056 19.1217 100.657 18.9751 99.3321 18.9751C97.86 18.9751 96.6086 19.1217 95.4309 19.3417C94.3268 19.6349 93.3699 19.9282 92.6339 20.368C91.8978 20.8079 91.3089 21.2478 90.9409 21.761C90.5729 22.2742 90.3521 22.7874 90.3521 23.3006C90.3521 23.9604 90.4993 24.5469 90.8673 25.1334C91.2353 25.7199 91.8242 26.2331 92.6339 26.7462C93.4435 27.2594 94.6213 27.6993 96.0934 28.0659C97.5655 28.4324 99.4057 28.799 101.688 29.0923C104.853 29.4588 107.502 29.972 109.637 30.5585C111.772 31.145 113.465 31.8781 114.79 32.7579C116.114 33.6376 116.998 34.5907 117.587 35.6904C118.175 36.7901 118.396 38.1097 118.396 39.5027C118.396 40.6024 118.102 41.6287 117.513 42.7284C116.924 43.8281 116.041 44.7812 114.863 45.6609C113.685 46.5407 112.213 47.2738 110.373 47.787C108.533 48.3002 106.398 48.5934 103.969 48.5934C102.424 48.5934 100.951 48.5201 99.5529 48.3002C98.1544 48.0803 96.7559 47.787 95.5045 47.4204C94.1796 47.0539 92.9283 46.5407 91.677 45.9542C90.4257 45.3677 89.2479 44.7079 88.0702 43.9747V47.787H82.2553V38.3297H82.4025Z" fill="#252525"/>
<path fill-rule="evenodd" clip-rule="evenodd" d="M98.8905 15.5807C96.4312 15.5807 94.2311 15.7976 92.4158 16.2844L92.4081 16.2865C90.4925 16.7811 89.0269 17.4103 87.7827 18.1676C86.5656 18.9084 85.7079 19.7686 85.1209 20.6743C84.54 21.6428 84.2936 22.587 84.2936 23.5205C84.2936 24.5853 84.4935 25.6128 85.0019 26.5623L85.0127 26.5825L85.0224 26.6032C85.464 27.5457 86.2384 28.4624 87.3886 29.2711C88.5497 30.0874 90.0107 30.787 91.8705 31.4292C93.7131 31.9925 96.0061 32.4227 98.6885 32.7115L98.6956 32.7123L98.7027 32.7132C101.064 33.0072 103.083 33.3042 104.814 33.6792C106.541 34.053 108.017 34.5113 109.138 35.0697C110.248 35.6224 111.09 36.277 111.7 37.0506C112.363 37.8163 112.632 38.7536 112.632 39.6493C112.632 40.5261 112.331 41.2891 111.798 41.997C111.258 42.7139 110.558 43.222 109.785 43.684L109.77 43.6931L109.755 43.7015C108.888 44.1723 107.927 44.5729 106.799 44.8135C105.72 45.0439 104.555 45.1991 103.233 45.1991C100.259 45.1991 97.4352 44.6671 94.7672 43.6806C92.093 42.7182 89.6513 41.1908 87.374 39.1874H83.1159V46.9292H87.2096V42.4277L88.5261 43.2472C89.6817 43.9666 90.8292 44.6089 92.0432 45.178C93.2709 45.7534 94.474 46.2451 95.7347 46.5939L95.741 46.5957L95.7472 46.5975C96.9543 46.9511 98.315 47.2371 99.687 47.4529C101.025 47.6633 102.448 47.7357 103.969 47.7357C106.329 47.7357 108.385 47.4507 110.141 46.961C111.89 46.4733 113.263 45.7841 114.347 44.9746C115.451 44.1497 116.238 43.287 116.754 42.3246C117.29 41.3227 117.536 40.4343 117.536 39.5027C117.536 38.1892 117.326 37.0249 116.827 36.0943C116.316 35.1395 115.539 34.2865 114.312 33.4717C113.084 32.656 111.481 31.955 109.408 31.3854C107.324 30.8126 104.718 30.3068 101.588 29.9443L101.583 29.9437L101.577 29.943C99.2633 29.6456 97.3902 29.2729 95.8848 28.8981C94.3763 28.5224 93.0955 28.0554 92.1721 27.4701C91.3131 26.9257 90.603 26.3298 90.1377 25.5882C89.676 24.8525 89.4914 24.1054 89.4914 23.3006C89.4914 22.5391 89.8179 21.8518 90.2408 21.2622C90.7157 20.6 91.4319 20.0862 92.1913 19.6324C93.0439 19.1229 94.1109 18.8046 95.2093 18.5128L95.2406 18.5045L95.2724 18.4986C96.4942 18.2704 97.799 18.1173 99.3321 18.1173C100.716 18.1173 102.181 18.27 103.504 18.58C104.824 18.8895 106.058 19.3516 107.204 19.8839C108.392 20.436 109.42 21.1455 110.289 21.9325C111.029 22.6024 111.66 23.3344 112.178 24.129H116.652V16.5338H112.559V21.0043L111.153 19.8591C110.368 19.2191 109.596 18.661 108.762 18.1766C107.892 17.6713 106.99 17.19 106.035 16.8504L106.01 16.8415L105.986 16.8311C105.034 16.4246 103.998 16.1466 102.789 15.9343L102.785 15.9335L102.78 15.9326C101.653 15.7221 100.308 15.5807 98.8905 15.5807ZM91.9725 14.6267C93.984 14.0879 96.3461 13.8652 98.8905 13.8652C100.416 13.8652 101.866 14.0167 103.093 14.2456C104.376 14.4713 105.539 14.7768 106.639 15.2437C107.736 15.6365 108.739 16.1773 109.629 16.6945C110.047 16.9373 110.447 17.1947 110.837 17.4661V14.8183H118.374V25.8445H111.204L110.955 25.4192C110.487 24.62 109.881 23.8808 109.132 23.2023C108.382 22.5231 107.497 21.9129 106.476 21.4387C105.413 20.9446 104.292 20.527 103.11 20.25C101.93 19.9735 100.598 19.8329 99.3321 19.8329C97.934 19.8329 96.7454 19.9704 95.6211 20.1789C94.5267 20.4703 93.6901 20.7369 93.0764 21.1037C92.3637 21.5296 91.9022 21.8956 91.641 22.2598C91.3278 22.6965 91.2127 23.0356 91.2127 23.3006C91.2127 23.8154 91.3225 24.2412 91.5969 24.6785C91.8676 25.1099 92.3352 25.5405 93.0957 26.0224C93.7916 26.4635 94.8662 26.8762 96.302 27.2337C97.7398 27.5917 99.5453 27.9519 101.792 28.2409C104.99 28.6115 107.682 29.1317 109.866 29.7316C112.062 30.335 113.845 31.1003 115.267 32.044C116.689 32.9888 117.679 34.042 118.346 35.2865C119.025 36.5553 119.257 38.0303 119.257 39.5027C119.257 40.7704 118.914 41.9347 118.272 43.1323C117.61 44.3693 116.631 45.4126 115.379 46.3473C114.108 47.2972 112.537 48.0743 110.605 48.613C108.681 49.1497 106.467 49.4512 103.969 49.4512C102.399 49.4512 100.878 49.3769 99.4188 49.1475C97.996 48.9237 96.5621 48.6239 95.2681 48.2452C93.8814 47.861 92.5838 47.3271 91.3107 46.7304C90.491 46.3462 89.704 45.9323 88.9308 45.4898V48.6448H81.3947V37.4719H88.0332L88.2788 37.6929C90.4935 39.6852 92.8284 41.1595 95.355 42.0682L95.3624 42.0709C97.8457 42.9895 100.468 43.4835 103.233 43.4835C104.414 43.4835 105.457 43.3455 106.439 43.136C107.366 42.9381 108.167 42.6087 108.915 42.2036C109.606 41.7895 110.08 41.42 110.421 40.9672C110.771 40.5021 110.911 40.0921 110.911 39.6493C110.911 39.0862 110.743 38.5654 110.388 38.1616L110.372 38.1429L110.356 38.1234C109.937 37.5857 109.311 37.0735 108.369 36.6043C107.429 36.1363 106.109 35.715 104.449 35.3556C102.797 34.9978 100.842 34.7085 98.4965 34.4164C95.7418 34.1194 93.3313 33.6716 91.3504 33.0646L91.3362 33.0602L91.322 33.0553C89.361 32.3792 87.735 31.614 86.3965 30.6729C85.0515 29.7273 84.0627 28.5985 83.4727 27.3499C82.8116 26.106 82.5724 24.7948 82.5724 23.5205C82.5724 22.2583 82.9129 21.0068 83.6521 19.7799L83.6589 19.7685L83.6661 19.7573C84.4038 18.6145 85.4579 17.5725 86.8856 16.7035C88.2904 15.8484 89.9151 15.1584 91.9725 14.6267Z" fill="#252525"/>
<path d="M127.872 43.4615H134.644V19.6349H127.504V15.5294H146.053C147.893 15.5294 149.513 15.5294 150.985 15.6027C152.457 15.6027 153.708 15.676 154.812 15.7493C155.916 15.8227 156.873 15.896 157.683 15.9693C158.493 16.0426 159.229 16.1159 159.744 16.2625C161.143 16.5558 162.394 16.9223 163.351 17.3622C164.308 17.8754 165.117 18.3886 165.78 19.1217C166.442 19.8549 166.884 20.5147 167.105 21.3944C167.399 22.2009 167.546 23.1539 167.546 24.107C167.546 24.7668 167.399 25.4999 167.105 26.2331C166.81 26.9662 166.369 27.626 165.78 28.2858C165.191 28.9456 164.381 29.5321 163.498 30.0453C162.541 30.5585 161.511 30.9984 160.259 31.365C161.511 31.5116 162.615 31.8048 163.645 32.2447C164.602 32.6846 165.485 33.2711 166.148 33.9309C166.81 34.5907 167.326 35.3238 167.694 36.1303C168.062 36.9367 168.209 37.8165 168.209 38.6962C168.209 39.7226 168.062 40.6757 167.767 41.6287C167.473 42.5085 167.031 43.3149 166.295 44.0481C165.633 44.7812 164.749 45.3677 163.719 45.8809C162.615 46.3941 161.363 46.7606 159.818 47.0539C158.125 47.3471 156.211 47.5671 154.076 47.6404C151.942 47.7137 149.439 47.787 146.568 47.787H127.946L127.872 43.4615ZM150.102 29.6788C152.236 29.6788 154.003 29.6054 155.401 29.3855C156.8 29.1656 157.904 28.8723 158.714 28.4324C159.523 27.9926 160.112 27.4794 160.48 26.8196C160.848 26.1597 160.995 25.3533 160.995 24.4002C160.995 23.4472 160.701 22.6407 160.112 21.9076C159.523 21.1745 158.566 20.588 157.315 20.2214C156.432 19.9282 155.401 19.7815 154.297 19.7815C153.193 19.7815 151.795 19.7082 150.175 19.7082H140.606V29.7521H150.102V29.6788ZM150.617 43.4615C152.383 43.4615 153.929 43.3882 155.18 43.3149C156.432 43.2416 157.536 43.0217 158.493 42.6551C159.082 42.4352 159.597 42.1419 159.965 41.8487C160.333 41.5554 160.627 41.1889 160.848 40.8223C161.069 40.4557 161.216 40.0892 161.29 39.6493C161.363 39.2094 161.437 38.7695 161.437 38.3297C161.437 37.23 161.069 36.2036 160.406 35.3972C159.744 34.5907 158.64 33.9309 157.168 33.491C156.285 33.1978 155.254 33.0511 154.076 32.9778C152.899 32.9045 151.574 32.9045 150.175 32.9045H140.459V43.4615H150.617Z" fill="white"/>
<path fill-rule="evenodd" clip-rule="evenodd" d="M126.644 14.6716H146.069C147.888 14.6716 149.518 14.6716 151.006 14.745C152.498 14.7457 153.765 14.8201 154.87 14.8935C155.978 14.9671 156.942 15.0409 157.761 15.115C158.532 15.1849 159.343 15.2617 159.949 15.4291C161.368 15.7279 162.679 16.1087 163.711 16.5833L163.735 16.5944L163.759 16.6069C164.741 17.1338 165.656 17.7031 166.419 18.5477C167.121 19.3245 167.657 20.0963 167.928 21.1427C168.253 22.0498 168.407 23.0886 168.407 24.107C168.407 24.8896 168.233 25.7308 167.904 26.5518C167.563 27.3992 167.06 28.1421 166.423 28.8559C165.75 29.6104 164.854 30.2503 163.931 30.7864L163.919 30.7937L163.906 30.8007C163.678 30.9229 163.446 31.0413 163.208 31.1556C163.471 31.2474 163.729 31.3476 163.984 31.4562L163.995 31.4609L164.006 31.4658C165.037 31.94 166.009 32.5804 166.756 33.3242C167.488 34.0528 168.064 34.8701 168.477 35.7751C168.907 36.7174 169.069 37.7237 169.069 38.6962C169.069 39.8088 168.909 40.847 168.59 41.8812L168.587 41.8907L168.584 41.9002C168.257 42.8771 167.756 43.8001 166.919 44.6389C166.16 45.4736 165.179 46.1128 164.103 46.6482L164.093 46.6534L164.083 46.6583C162.894 47.2108 161.569 47.5949 159.979 47.8965L159.972 47.8978L159.965 47.899C158.235 48.1986 156.282 48.4229 154.106 48.4976C151.968 48.5711 149.454 48.6448 146.568 48.6448H127.1L126.997 42.6038H133.783V20.4927H126.644V14.6716ZM128.365 16.3872V18.7772H135.505V44.3193H128.748L128.792 46.9293H146.568C149.424 46.9293 151.916 46.8563 154.047 46.7831C156.137 46.7114 158.009 46.4963 159.663 46.21C161.157 45.9263 162.329 45.579 163.345 45.1084C164.318 44.6224 165.094 44.0952 165.656 43.474L165.671 43.4573L165.687 43.4413C166.31 42.8207 166.688 42.1393 166.948 41.3667C167.215 40.498 167.348 39.6329 167.348 38.6962C167.348 37.9092 167.216 37.1561 166.91 36.4854C166.587 35.7776 166.133 35.1287 165.54 34.5376C164.964 33.9642 164.173 33.4335 163.295 33.0285C162.349 32.6257 161.329 32.3539 160.159 32.2168L155.973 31.7264L160.017 30.542C161.202 30.1946 162.174 29.7802 163.077 29.2969C163.916 28.8087 164.635 28.2781 165.137 27.7157C165.677 27.1099 166.057 26.5332 166.306 25.9143C166.565 25.2691 166.686 24.644 166.686 24.107C166.686 23.2349 166.55 22.3838 166.296 21.6877L166.281 21.6458L166.27 21.6026C166.096 20.9117 165.754 20.3745 165.14 19.6958C164.583 19.0794 163.886 18.6248 162.967 18.1303C162.095 17.7329 160.922 17.3861 159.567 17.1019L159.537 17.0957L159.508 17.0873C159.087 16.9675 158.44 16.8991 157.605 16.8235C156.804 16.751 155.855 16.6782 154.755 16.6052C153.657 16.5323 152.428 16.4605 150.985 16.4605H150.963L150.942 16.4594C149.495 16.3874 147.899 16.3872 146.053 16.3872H128.365ZM139.746 18.8505H150.175C150.997 18.8505 151.761 18.8691 152.452 18.8874C152.518 18.8892 152.582 18.8909 152.646 18.8926C153.263 18.9091 153.81 18.9238 154.297 18.9238C155.468 18.9238 156.588 19.078 157.572 19.4028C158.931 19.8031 160.056 20.4655 160.784 21.3715C161.492 22.2527 161.856 23.2471 161.856 24.4002C161.856 25.4319 161.698 26.4009 161.232 27.2364C160.761 28.0816 160.027 28.6958 159.125 29.1856C158.184 29.6969 156.963 30.0083 155.535 30.2328C154.268 30.4321 152.737 30.5137 150.962 30.5322V30.6098H139.746V18.8505ZM149.241 28.8943V28.821H150.102C152.226 28.821 153.938 28.7473 155.267 28.5382C156.637 28.3228 157.624 28.0477 158.302 27.6793C159.019 27.2893 159.463 26.8772 159.728 26.4028C159.998 25.9186 160.135 25.2747 160.135 24.4002C160.135 23.6472 159.91 23.0288 159.44 22.4437C158.993 21.8868 158.21 21.3776 157.072 21.0444L157.058 21.0401L157.043 21.0352C156.265 20.7768 155.329 20.6393 154.297 20.6393C153.785 20.6393 153.214 20.624 152.604 20.6076C152.538 20.6059 152.473 20.6041 152.406 20.6023C151.717 20.584 150.973 20.566 150.175 20.566H141.467V28.8943H149.241ZM139.598 32.0468H150.193C151.578 32.0468 152.925 32.0468 154.13 32.1217C155.334 32.1967 156.445 32.3488 157.427 32.6731C158.992 33.1425 160.267 33.873 161.072 34.8538C161.864 35.8177 162.298 37.0373 162.298 38.3297C162.298 38.8411 162.214 39.3406 162.143 39.7619L162.139 39.7904C162.045 40.349 161.855 40.8165 161.586 41.2638C161.324 41.6986 160.966 42.1491 160.502 42.5187C160.056 42.8745 159.46 43.2094 158.798 43.457C157.744 43.8606 156.55 44.0939 155.231 44.1712C153.971 44.245 152.407 44.3193 150.617 44.3193H139.598V32.0468ZM141.32 33.7623V42.6038H150.617C152.36 42.6038 153.887 42.5315 155.13 42.4587C156.312 42.3894 157.326 42.1832 158.184 41.8545L158.191 41.8519C158.705 41.6596 159.139 41.4087 159.427 41.1787C159.7 40.9617 159.931 40.6791 160.11 40.3808C160.282 40.095 160.387 39.8294 160.441 39.5082C160.517 39.0557 160.576 38.6864 160.576 38.3297C160.576 37.4226 160.274 36.5895 159.741 35.9405C159.223 35.311 158.295 34.7232 156.921 34.3127L156.908 34.3089L156.896 34.3048C156.115 34.0454 155.169 33.9053 154.023 33.8339C152.877 33.7626 151.581 33.7623 150.175 33.7623H141.32Z" fill="white"/>
<path fill-rule="evenodd" clip-rule="evenodd" d="M28.5753 12.7449C28.6857 11.8237 28.7816 10.9246 28.865 10.0572C27.762 10.5104 26.609 11.0018 25.4313 11.5281C21.9466 13.0856 18.3616 14.8978 15.2579 16.8693C12.0684 18.8954 9.82039 20.8203 8.59335 22.4656C5.84012 26.1574 6.47894 31.4152 10.0952 34.398C9.83645 37.1562 10.1341 39.941 10.9601 42.579C9.33741 42.0615 7.77062 41.2694 6.32732 40.193C-0.609546 35.0196 -2.06679 25.2394 3.07248 18.3483C8.27447 11.373 21.2511 5.56136 29.3629 2.44997C33.4503 0.882187 36.3025 0 36.3025 0C36.3025 0 36.3074 2.98412 35.9997 7.35766C35.9584 7.94364 35.9116 8.55456 35.8584 9.18659C35.8005 9.21235 35.7425 9.2382 35.6845 9.26413C33.3891 10.29 30.9651 11.4555 28.5753 12.7449Z" fill="#7A421B"/>
<path fill-rule="evenodd" clip-rule="evenodd" d="M26.2619 43.8516C26.0424 43.7157 25.8267 43.5691 25.6156 43.4116C21.6933 40.4865 20.9246 35.0128 23.7642 31.2051C24.9913 29.5598 27.2393 27.6349 30.4288 25.6088C33.5325 23.6373 37.1175 21.8251 40.6022 20.2676C41.7799 19.7413 42.9329 19.2499 44.0359 18.7967C43.9317 19.8797 43.8081 21.0123 43.6612 22.1754C46.0964 20.8134 48.5948 19.5791 50.9806 18.4895C51.0544 17.6558 51.1172 16.8556 51.1706 16.0971C51.4783 11.7236 51.4734 8.73949 51.4734 8.73949C51.4734 8.73949 48.6212 9.62167 44.5338 11.1895C36.422 14.3009 23.4454 20.1125 18.2434 27.0878C13.1041 33.9789 14.5614 43.7591 21.4982 48.9325C23.2723 50.2556 25.233 51.1492 27.2548 51.6312C26.4367 49.1261 26.0977 46.4829 26.2619 43.8516Z" fill="#E57425"/>
<path fill-rule="evenodd" clip-rule="evenodd" d="M41.8327 52.221C45.7549 55.1461 51.2205 54.3219 54.0602 50.5142C55.3869 48.7353 56.6288 45.9532 57.6666 42.3294C58.6811 38.7869 59.3838 34.8619 59.8612 31.1194C60.0156 29.9091 60.1448 28.7309 60.253 27.6061C59.15 28.0592 57.997 28.5506 56.8193 29.077C53.3346 30.6344 49.7496 32.4466 46.6459 34.4182C43.4563 36.4442 41.2084 38.3692 39.9813 40.0145C37.1416 43.8221 37.9104 49.2958 41.8327 52.221ZM60.7509 19.9988C52.6391 23.1102 39.6625 28.9219 34.4605 35.8971C29.3212 42.7882 30.7784 52.5685 37.7153 57.7418C44.6522 62.9152 54.4418 61.5227 59.5811 54.6316C64.9797 47.3927 66.7844 33.48 67.3876 24.9065C67.6954 20.533 67.6904 17.5488 67.6904 17.5488C67.6904 17.5488 64.8382 18.431 60.7509 19.9988Z" fill="#F8BD15"/>
</svg>
