<?xml version="1.0" encoding="utf-8"?>
<!-- Generator: Adobe Illustrator 22.1.0, SVG Export Plug-In . SVG Version: 6.00 Build 0)  -->
<svg version="1.1" id="Layer_1" xmlns="http://www.w3.org/2000/svg" xmlns:xlink="http://www.w3.org/1999/xlink" x="0px" y="0px"
	 viewBox="0 0 777.9 50.7" style="enable-background:new 0 0 777.9 50.7;" xml:space="preserve">
<style type="text/css">
	.st0{fill:#252525;stroke:#252525;stroke-width:3;stroke-miterlimit:10;}
	.st1{fill:#FFFFFF;stroke:#FFFFFF;stroke-width:3;stroke-miterlimit:10;}
	.st2{fill:#7A421B;}
	.st3{fill:#E57425;}
	.st4{fill:#F8BD15;}
</style>
<path id="XMLID_104_" class="st0" d="M63.5,35.1h7.2c3.1,2.8,6.4,4.9,10,6.2c3.5,1.3,7.2,2,11.1,2c1.7,0,3.2-0.2,4.6-0.5
	s2.6-0.8,3.7-1.4c1-0.6,1.8-1.2,2.4-2c0.6-0.8,0.9-1.6,0.9-2.5c0-1-0.3-2-1-2.8c-0.7-0.9-1.7-1.7-3.1-2.4c-1.4-0.7-3.3-1.3-5.6-1.8
	c-2.3-0.5-5-0.9-8.2-1.3c-3.7-0.4-6.9-1-9.5-1.8c-2.6-0.9-4.7-1.9-6.4-3.1c-1.7-1.2-2.9-2.6-3.6-4.1c-0.8-1.5-1.1-3.1-1.1-4.7
	c0-1.5,0.4-3,1.3-4.5c0.9-1.4,2.2-2.7,4-3.8c1.8-1.1,3.9-2,6.6-2.7c2.6-0.7,5.7-1,9.1-1c2,0,3.9,0.2,5.5,0.5
	c1.7,0.3,3.2,0.7,4.6,1.3c1.4,0.5,2.7,1.2,3.9,1.9c1.2,0.7,2.3,1.5,3.4,2.4V4.2h7.9v12.7h-7.9c-0.7-1.2-1.6-2.3-2.7-3.3
	s-2.4-1.9-3.9-2.6s-3.1-1.3-4.8-1.7c-1.7-0.4-3.6-0.6-5.4-0.6c-2,0-3.7,0.2-5.3,0.5c-1.5,0.4-2.8,0.8-3.8,1.4s-1.8,1.2-2.3,1.9
	s-0.8,1.4-0.8,2.1c0,0.9,0.2,1.7,0.7,2.5s1.3,1.5,2.4,2.2s2.7,1.3,4.7,1.8s4.5,1,7.6,1.4c4.3,0.5,7.9,1.2,10.8,2s5.2,1.8,7,3
	s3,2.5,3.8,4c0.8,1.5,1.1,3.3,1.1,5.2c0,1.5-0.4,2.9-1.2,4.4s-2,2.8-3.6,4s-3.6,2.2-6.1,2.9s-5.4,1.1-8.7,1.1c-2.1,0-4.1-0.1-6-0.4
	c-1.9-0.3-3.8-0.7-5.5-1.2c-1.8-0.5-3.5-1.2-5.2-2s-3.3-1.7-4.9-2.7V48h-7.9V35.1H63.5L63.5,35.1z"/>
<path id="XMLID_102_" class="st0" d="M121.8,42.1h9.5V9.6h-9.5V4h52.3v13.7h-7.9V9.6h-26.6v13.9h17.6v4.4h-17.6v14.2h26.6V34h7.9
	v13.7h-52.3V42.1z"/>
<path id="XMLID_99_" class="st0" d="M184.1,42.1h7.6L214.8,4h7.6l22.7,38.1h9.1v5.6h-27.1v-5.6h8.5l-5.1-9H206l-5,9h8.1v5.6h-25
	V42.1z M228.1,28.8l-9.9-17.5l-9.7,17.5H228.1z"/>
<path id="XMLID_97_" class="st0" d="M264.5,42.1h12V9.6h-16.8v9.1h-7.9V4H309v14.8h-7.9V9.7h-16.8v32.4h12v5.6h-31.8V42.1
	L264.5,42.1z"/>
<path id="XMLID_93_" class="st0" d="M387.2,42.1h9.1V9.6h-9.7V4h27.6v5.6h-9.8v32.5h24.4V31.9h7.9v15.8h-49.5V42.1z"/>
<path id="XMLID_91_" class="st0" d="M447.3,42.1h9.5V9.6h-9.5V4h52.3v13.7h-7.9V9.6H465v13.9h17.6v4.4H465v14.2h26.6V34h7.9v13.7
	h-52.3L447.3,42.1L447.3,42.1z"/>
<path id="XMLID_87_" class="st1" d="M517.9,42.1h9.2V9.6h-9.7V4h25.2c2.5,0,4.7,0,6.7,0.1c2,0,3.7,0.1,5.2,0.2s2.8,0.2,3.9,0.3
	c1.1,0.1,2.1,0.2,2.8,0.4c1.9,0.4,3.6,0.9,4.9,1.5c1.3,0.7,2.4,1.4,3.3,2.4c0.9,1,1.5,1.9,1.8,3.1c0.4,1.1,0.6,2.4,0.6,3.7
	c0,0.9-0.2,1.9-0.6,2.9c-0.4,1-1,1.9-1.8,2.8c-0.8,0.9-1.9,1.7-3.1,2.4c-1.3,0.7-2.7,1.3-4.4,1.8c1.7,0.2,3.2,0.6,4.6,1.2
	c1.3,0.6,2.5,1.4,3.4,2.3c0.9,0.9,1.6,1.9,2.1,3s0.7,2.3,0.7,3.5c0,1.4-0.2,2.7-0.6,4c-0.4,1.2-1,2.3-2,3.3c-0.9,1-2.1,1.8-3.5,2.5
	c-1.5,0.7-3.2,1.2-5.3,1.6c-2.3,0.4-4.9,0.7-7.8,0.8c-2.9,0.1-6.3,0.2-10.2,0.2H518L517.9,42.1L517.9,42.1L517.9,42.1z M548.1,23.3
	c2.9,0,5.3-0.1,7.2-0.4s3.4-0.7,4.5-1.3c1.1-0.6,1.9-1.3,2.4-2.2s0.7-2,0.7-3.3s-0.4-2.4-1.2-3.4s-2.1-1.8-3.8-2.3
	c-1.2-0.4-2.6-0.6-4.1-0.6s-3.4-0.1-5.6-0.1h-13v13.7h12.9V23.3L548.1,23.3z M548.8,42.1c2.4,0,4.5-0.1,6.2-0.2s3.2-0.4,4.5-0.9
	c0.8-0.3,1.5-0.7,2-1.1s0.9-0.9,1.2-1.4s0.5-1,0.6-1.6c0.1-0.6,0.2-1.2,0.2-1.8c0-1.5-0.5-2.9-1.4-4s-2.4-2-4.4-2.6
	c-1.2-0.4-2.6-0.6-4.2-0.7c-1.6-0.1-3.4-0.1-5.3-0.1H535v14.4L548.8,42.1L548.8,42.1z"/>
<path id="XMLID_85_" class="st1" d="M582.7,42.1h9.5V9.6h-9.5V4H635v13.7h-8V9.6h-26.6v13.9H618v4.4h-17.6v14.2H627V34h7.9v13.7
	h-52.3L582.7,42.1L582.7,42.1z"/>
<path id="XMLID_83_" class="st1" d="M646.2,42.1h9.5V9.6h-9.5V4h52.3v13.7h-7.9V9.6H664v13.9h17.6v4.4H664v14.2h26.6V34h7.9v13.7
	h-52.3V42.1L646.2,42.1z"/>
<path id="XMLID_80_" class="st1" d="M710,42.1h9.2V9.6h-9.7V4h28.8c2.7,0,5.1,0,7.3,0.1s4.1,0.3,5.9,0.6c2.1,0.4,3.8,0.9,5.3,1.7
	c1.5,0.8,2.6,1.6,3.5,2.5c0.9,1,1.6,2.1,2,3.4s0.6,2.6,0.6,4.1c0,2.7-0.8,5-2.5,7s-4.2,3.5-7.6,4.6c-0.4,0.1-0.9,0.3-1.3,0.4
	c-0.4,0.1-0.9,0.2-1.4,0.3c1.2,0.7,2.5,1.5,3.7,2.5s2.4,2.1,3.4,3.3c1,1.2,2,2.4,2.8,3.7s1.3,2.6,1.7,3.8h7.1v5.6H744v-5.5h8.4
	c-0.4-1.3-1-2.6-1.9-3.9s-1.9-2.6-3.1-3.8c-1.2-1.2-2.5-2.2-4.1-3.1c-1.5-0.9-3.1-1.5-4.8-1.8h-11.3v12.6h8.6v5.6h-25.7L710,42.1
	L710,42.1z M739.9,24c2.8,0,5.1-0.2,7-0.5s3.3-0.8,4.4-1.4c1.1-0.6,1.9-1.4,2.4-2.3s0.7-2,0.7-3.1c0-1.5-0.5-2.8-1.5-3.9
	s-2.7-2-4.9-2.6c-1.1-0.3-2.2-0.4-3.6-0.5c-1.4-0.1-2.8-0.1-4.4-0.1h-12.7V24H739.9z"/>
<g>
	<rect x="0.1" class="st2" width="16.7" height="50.7"/>
	<rect id="XMLID_1_" x="16.7" class="st3" width="24" height="50.7"/>
	<rect id="XMLID_2_" x="33.4" class="st4" width="16.7" height="50.7"/>
</g>
<polygon class="st0" points="319.2,4 319.2,18.7 327.1,18.7 327.1,9.6 343.9,9.6 343.9,42.1 332.7,42.1 332.7,42.1 332,42.1 
	332,42.8 332,42.8 332,47.7 363.8,47.7 363.8,42.1 351.8,42.1 351.8,9.7 368.6,9.7 368.6,18.8 376.5,18.8 376.5,4 "/>
</svg>
