<?xml version="1.0" encoding="utf-8"?>
<!-- Generator: Adobe Illustrator 19.0.0, SVG Export Plug-In . SVG Version: 6.00 Build 0)  -->
<!DOCTYPE svg PUBLIC "-//W3C//DTD SVG 1.1//EN" "http://www.w3.org/Graphics/SVG/1.1/DTD/svg11.dtd">
<svg version="1.1" id="Layer_1" xmlns="http://www.w3.org/2000/svg" xmlns:xlink="http://www.w3.org/1999/xlink" x="0px" y="0px"
	 viewBox="-22.9 255.6 777.9 50.7" style="enable-background:new -22.9 255.6 777.9 50.7;" xml:space="preserve">
<style type="text/css">
	.st0{fill:#8F8F8F;stroke:#8F8F8F;stroke-width:3;stroke-miterlimit:10;}
	.st1{fill:#FFFFFF;stroke:#FFFFFF;stroke-width:3;stroke-miterlimit:10;}
	.st2{fill:#7A421B;}
	.st3{fill:#E57425;}
	.st4{fill:#F8BD15;}
</style>
<path id="XMLID_104_" class="st0" d="M40.5,290.7h7.2c3.1,2.8,6.4,4.9,10,6.2c3.5,1.3,7.2,2,11.1,2c1.7,0,3.2-0.2,4.6-0.5
	c1.4-0.3,2.6-0.8,3.7-1.4c1-0.6,1.8-1.2,2.4-2c0.6-0.8,0.9-1.6,0.9-2.5c0-1-0.3-2-1-2.8c-0.7-0.9-1.7-1.7-3.1-2.4s-3.3-1.3-5.6-1.8
	s-5-0.9-8.2-1.3c-3.7-0.4-6.9-1-9.5-1.8c-2.6-0.9-4.7-1.9-6.4-3.1c-1.7-1.2-2.9-2.6-3.6-4.1c-0.8-1.5-1.1-3.1-1.1-4.7
	c0-1.5,0.4-3,1.3-4.5c0.9-1.4,2.2-2.7,4-3.8s3.9-2,6.6-2.7c2.6-0.7,5.7-1,9.1-1c2,0,3.9,0.2,5.5,0.5c1.7,0.3,3.2,0.7,4.6,1.3
	c1.4,0.5,2.7,1.2,3.9,1.9c1.2,0.7,2.3,1.5,3.4,2.4v-4.8h7.9v12.7h-7.9c-0.7-1.2-1.6-2.3-2.7-3.3c-1.1-1-2.4-1.9-3.9-2.6
	c-1.5-0.7-3.1-1.3-4.8-1.7s-3.6-0.6-5.4-0.6c-2,0-3.7,0.2-5.3,0.5c-1.5,0.4-2.8,0.8-3.8,1.4c-1,0.6-1.8,1.2-2.3,1.9
	c-0.5,0.7-0.8,1.4-0.8,2.1c0,0.9,0.2,1.7,0.7,2.5c0.5,0.8,1.3,1.5,2.4,2.2c1.1,0.7,2.7,1.3,4.7,1.8s4.5,1,7.6,1.4
	c4.3,0.5,7.9,1.2,10.8,2c2.9,0.8,5.2,1.8,7,3c1.8,1.2,3,2.5,3.8,4s1.1,3.3,1.1,5.2c0,1.5-0.4,2.9-1.2,4.4s-2,2.8-3.6,4
	c-1.6,1.2-3.6,2.2-6.1,2.9c-2.5,0.7-5.4,1.1-8.7,1.1c-2.1,0-4.1-0.1-6-0.4c-1.9-0.3-3.8-0.7-5.5-1.2c-1.8-0.5-3.5-1.2-5.2-2
	c-1.7-0.8-3.3-1.7-4.9-2.7v5.2h-7.9v-12.9H40.5z"/>
<path id="XMLID_102_" class="st0" d="M100.8,297.7h9.5v-32.5h-9.5v-5.6h52.3v13.7h-7.9v-8.1h-26.6v13.9h17.6v4.4h-17.6v14.2h26.6
	v-8.1h7.9v13.7h-52.3V297.7z"/>
<path id="XMLID_99_" class="st0" d="M161.1,297.7h7.6l23.1-38.1h7.6l22.7,38.1h9.1v5.6h-27.1v-5.6h8.5l-5.1-9H183l-5,9h8.1v5.6h-25
	V297.7z M205.1,284.4l-9.9-17.5l-9.7,17.5H205.1z"/>
<path id="XMLID_97_" class="st0" d="M249.5,297.7h12v-32.5h-16.8v9.1h-7.9v-14.7H294v14.8h-7.9v-9.1h-16.8v32.4h12v5.6h-31.8
	L249.5,297.7L249.5,297.7z"/>
<path id="XMLID_95_" class="st0" d="M314.9,297.7h12v-32.5h-16.8v9.1h-7.9v-14.7h57.3v14.8h-7.9v-9.1h-16.8v32.4h12v5.6H315v-5.6
	H314.9z"/>
<path id="XMLID_93_" class="st0" d="M369.2,297.7h9.1v-32.5h-9.7v-5.6h27.6v5.6h-9.8v32.5h24.4v-10.2h7.9v15.8h-49.5V297.7z"/>
<path id="XMLID_91_" class="st0" d="M429.3,297.7h9.5v-32.5h-9.5v-5.6h52.3v13.7h-7.9v-8.1H447v13.9h17.6v4.4H447v14.2h26.6v-8.1
	h7.9v13.7h-52.3L429.3,297.7L429.3,297.7z"/>
<path id="XMLID_87_" class="st1" d="M494.9,297.7h9.2v-32.5h-9.7v-5.6h25.2c2.5,0,4.7,0,6.7,0.1c2,0,3.7,0.1,5.2,0.2
	s2.8,0.2,3.9,0.3c1.1,0.1,2.1,0.2,2.8,0.4c1.9,0.4,3.6,0.9,4.9,1.5c1.3,0.7,2.4,1.4,3.3,2.4s1.5,1.9,1.8,3.1
	c0.4,1.1,0.6,2.4,0.6,3.7c0,0.9-0.2,1.9-0.6,2.9c-0.4,1-1,1.9-1.8,2.8c-0.8,0.9-1.9,1.7-3.1,2.4c-1.3,0.7-2.7,1.3-4.4,1.8
	c1.7,0.2,3.2,0.6,4.6,1.2c1.3,0.6,2.5,1.4,3.4,2.3s1.6,1.9,2.1,3s0.7,2.3,0.7,3.5c0,1.4-0.2,2.7-0.6,4c-0.4,1.2-1,2.3-2,3.3
	c-0.9,1-2.1,1.8-3.5,2.5c-1.5,0.7-3.2,1.2-5.3,1.6c-2.3,0.4-4.9,0.7-7.8,0.8c-2.9,0.1-6.3,0.2-10.2,0.2H495v-5.9H494.9z
	 M525.1,278.9c2.9,0,5.3-0.1,7.2-0.4s3.4-0.7,4.5-1.3c1.1-0.6,1.9-1.3,2.4-2.2s0.7-2,0.7-3.3c0-1.3-0.4-2.4-1.2-3.4
	s-2.1-1.8-3.8-2.3c-1.2-0.4-2.6-0.6-4.1-0.6s-3.4-0.1-5.6-0.1h-13V279h12.9V278.9z M525.8,297.7c2.4,0,4.5-0.1,6.2-0.2
	c1.7-0.1,3.2-0.4,4.5-0.9c0.8-0.3,1.5-0.7,2-1.1c0.5-0.4,0.9-0.9,1.2-1.4s0.5-1,0.6-1.6c0.1-0.6,0.2-1.2,0.2-1.8
	c0-1.5-0.5-2.9-1.4-4c-0.9-1.1-2.4-2-4.4-2.6c-1.2-0.4-2.6-0.6-4.2-0.7c-1.6-0.1-3.4-0.1-5.3-0.1H512v14.4H525.8z"/>
<path id="XMLID_85_" class="st1" d="M560.7,297.7h9.5v-32.5h-9.5v-5.6H613v13.7h-8v-8.1h-26.6v13.9H596v4.4h-17.6v14.2H605v-8.1h7.9
	v13.7h-52.3L560.7,297.7L560.7,297.7z"/>
<path id="XMLID_83_" class="st1" d="M626.3,297.7h9.5v-32.5h-9.5v-5.6h52.3v13.7h-7.9v-8.1H644v13.9h17.6v4.4H644v14.2h26.6v-8.1
	h7.9v13.7h-52.3L626.3,297.7L626.3,297.7z"/>
<path id="XMLID_80_" class="st1" d="M692.1,297.7h9.2v-32.5h-9.7v-5.6h28.8c2.7,0,5.1,0,7.3,0.1c2.2,0.1,4.1,0.3,5.9,0.6
	c2.1,0.4,3.8,0.9,5.3,1.7s2.6,1.6,3.5,2.5c0.9,1,1.6,2.1,2,3.4c0.4,1.3,0.6,2.6,0.6,4.1c0,2.7-0.8,5-2.5,7s-4.2,3.5-7.6,4.6
	c-0.4,0.1-0.9,0.3-1.3,0.4c-0.4,0.1-0.9,0.2-1.4,0.3c1.2,0.7,2.5,1.5,3.7,2.5s2.4,2.1,3.4,3.3c1,1.2,2,2.4,2.8,3.7
	c0.8,1.3,1.3,2.6,1.7,3.8h7.1v5.6H726v-5.5h8.4c-0.4-1.3-1-2.6-1.9-3.9c-0.9-1.3-1.9-2.6-3.1-3.8c-1.2-1.2-2.5-2.2-4.1-3.1
	c-1.5-0.9-3.1-1.5-4.8-1.8h-11.3v12.6h8.6v5.6h-25.7L692.1,297.7L692.1,297.7z M721.9,279.6c2.8,0,5.1-0.2,7-0.5s3.3-0.8,4.4-1.4
	c1.1-0.6,1.9-1.4,2.4-2.3s0.7-2,0.7-3.1c0-1.5-0.5-2.8-1.5-3.9s-2.7-2-4.9-2.6c-1.1-0.3-2.2-0.4-3.6-0.5c-1.4-0.1-2.8-0.1-4.4-0.1
	h-12.7v14.4H721.9z"/>
<g>
	<rect x="-22.9" y="255.6" class="st2" width="16.7" height="50.7"/>
	<rect id="XMLID_1_" x="-6.3" y="255.6" class="st3" width="24" height="50.7"/>
	<rect id="XMLID_2_" x="10.4" y="255.6" class="st4" width="16.7" height="50.7"/>
</g>
</svg>
