<?xml version="1.0" encoding="utf-8"?>
<!-- Generator: Adobe Illustrator 22.1.0, SVG Export Plug-In . SVG Version: 6.00 Build 0)  -->
<svg version="1.1" id="Layer_1" xmlns="http://www.w3.org/2000/svg" xmlns:xlink="http://www.w3.org/1999/xlink" x="0px" y="0px"
	 viewBox="0 0 777.9 50.7" style="enable-background:new 0 0 777.9 50.7;" xml:space="preserve">
<style type="text/css">
	.st0{fill:#8F8F8F;stroke:#8F8F8F;stroke-width:3;stroke-miterlimit:10;}
	.st1{fill:#FFFFFF;stroke:#FFFFFF;stroke-width:3;stroke-miterlimit:10;}
	.st2{fill:#7A421B;}
	.st3{fill:#E57425;}
	.st4{fill:#F8BD15;}
</style>
<path id="XMLID_104_" class="st0" d="M63.4,35.1h7.2c3.1,2.8,6.4,4.9,10,6.2c3.5,1.3,7.2,2,11.1,2c1.7,0,3.2-0.2,4.6-0.5
	s2.6-0.8,3.7-1.4c1-0.6,1.8-1.2,2.4-2s0.9-1.6,0.9-2.5c0-1-0.3-2-1-2.8c-0.7-0.9-1.7-1.7-3.1-2.4s-3.3-1.3-5.6-1.8s-5-0.9-8.2-1.3
	c-3.7-0.4-6.9-1-9.5-1.8c-2.6-0.9-4.7-1.9-6.4-3.1c-1.7-1.2-2.9-2.6-3.6-4.1c-0.8-1.5-1.1-3.1-1.1-4.7c0-1.5,0.4-3,1.3-4.5
	c0.9-1.4,2.2-2.7,4-3.8c1.8-1.1,3.9-2,6.6-2.7c2.6-0.7,5.7-1,9.1-1c2,0,3.9,0.2,5.5,0.5c1.7,0.3,3.2,0.7,4.6,1.3
	c1.4,0.5,2.7,1.2,3.9,1.9c1.2,0.7,2.3,1.5,3.4,2.4V4.2h7.9v12.7h-7.9c-0.7-1.2-1.6-2.3-2.7-3.3s-2.4-1.9-3.9-2.6s-3.1-1.3-4.8-1.7
	s-3.6-0.6-5.4-0.6c-2,0-3.7,0.2-5.3,0.5c-1.5,0.4-2.8,0.8-3.8,1.4s-1.8,1.2-2.3,1.9c-0.5,0.7-0.8,1.4-0.8,2.1c0,0.9,0.2,1.7,0.7,2.5
	s1.3,1.5,2.4,2.2s2.7,1.3,4.7,1.8s4.5,1,7.6,1.4c4.3,0.5,7.9,1.2,10.8,2s5.2,1.8,7,3s3,2.5,3.8,4s1.1,3.3,1.1,5.2
	c0,1.5-0.4,2.9-1.2,4.4s-2,2.8-3.6,4s-3.6,2.2-6.1,2.9c-2.5,0.7-5.4,1.1-8.7,1.1c-2.1,0-4.1-0.1-6-0.4s-3.8-0.7-5.5-1.2
	c-1.8-0.5-3.5-1.2-5.2-2c-1.7-0.8-3.3-1.7-4.9-2.7V48h-7.9V35.1L63.4,35.1L63.4,35.1z"/>
<path id="XMLID_102_" class="st0" d="M121.7,42.1h9.5V9.6h-9.5V4H174v13.7h-7.9V9.6h-26.6v13.9h17.6v4.4h-17.6v14.2h26.6V34h7.9
	v13.7h-52.3V42.1z"/>
<path id="XMLID_99_" class="st0" d="M184,42.1h7.6L214.7,4h7.6L245,42.1h9.1v5.6H227v-5.6h8.5l-5.1-9h-24.5l-5,9h8.1v5.6h-25V42.1z
	 M228,28.8l-9.9-17.5l-9.7,17.5H228z"/>
<path id="XMLID_97_" class="st0" d="M264.4,42.1h12V9.6h-16.8v9.1h-7.9V4h57.2v14.8H301V9.7h-16.8v32.4h12v5.6h-31.8L264.4,42.1
	L264.4,42.1z"/>
<g>
	<rect x="331.8" y="42.1" class="st0" width="0.1" height="0"/>
	<polygon class="st0" points="319.1,4 319.1,18.7 327,18.7 327,9.6 343.8,9.6 343.8,42.1 331.9,42.1 331.9,47.7 363.7,47.7 
		363.7,42.1 351.7,42.1 351.7,9.7 368.5,9.7 368.5,18.8 376.4,18.8 376.4,4 	"/>
</g>
<path id="XMLID_93_" class="st0" d="M387.1,42.1h9.1V9.6h-9.7V4h27.6v5.6h-9.8v32.5h24.4V31.9h7.9v15.8h-49.5V42.1z"/>
<path id="XMLID_91_" class="st0" d="M447.2,42.1h9.5V9.6h-9.5V4h52.3v13.7h-7.9V9.6h-26.7v13.9h17.6v4.4h-17.6v14.2h26.6V34h7.9
	v13.7h-52.3L447.2,42.1L447.2,42.1z"/>
<path id="XMLID_85_" class="st1" d="M582.6,42.1h9.5V9.6h-9.5V4h52.3v13.7h-8V9.6h-26.6v13.9h17.6v4.4h-17.6v14.2h26.6V34h7.9v13.7
	h-52.3L582.6,42.1L582.6,42.1z"/>
<path id="XMLID_83_" class="st1" d="M646.2,42.1h9.5V9.6h-9.5V4h52.3v13.7h-7.9V9.6h-26.7v13.9h17.6v4.4h-17.6v14.2h26.6V34h7.9
	v13.7h-52.3L646.2,42.1L646.2,42.1z"/>
<path id="XMLID_80_" class="st1" d="M710,42.1h9.2V9.6h-9.7V4h28.8c2.7,0,5.1,0,7.3,0.1s4.1,0.3,5.9,0.6c2.1,0.4,3.8,0.9,5.3,1.7
	s2.6,1.6,3.5,2.5c0.9,1,1.6,2.1,2,3.4s0.6,2.6,0.6,4.1c0,2.7-0.8,5-2.5,7s-4.2,3.5-7.6,4.6c-0.4,0.1-0.9,0.3-1.3,0.4
	c-0.4,0.1-0.9,0.2-1.4,0.3c1.2,0.7,2.5,1.5,3.7,2.5s2.4,2.1,3.4,3.3c1,1.2,2,2.4,2.8,3.7c0.8,1.3,1.3,2.6,1.7,3.8h7.1v5.6h-24.9
	v-5.5h8.4c-0.4-1.3-1-2.6-1.9-3.9s-1.9-2.6-3.1-3.8c-1.2-1.2-2.5-2.2-4.1-3.1c-1.5-0.9-3.1-1.5-4.8-1.8h-11.3v12.6h8.6v5.6H710
	L710,42.1L710,42.1z M739.8,24c2.8,0,5.1-0.2,7-0.5s3.3-0.8,4.4-1.4c1.1-0.6,1.9-1.4,2.4-2.3s0.7-2,0.7-3.1c0-1.5-0.5-2.8-1.5-3.9
	s-2.7-2-4.9-2.6c-1.1-0.3-2.2-0.4-3.6-0.5c-1.4-0.1-2.8-0.1-4.4-0.1h-12.7V24H739.8z"/>
<g>
	<rect class="st2" width="16.7" height="50.7"/>
	<rect id="XMLID_1_" x="16.6" class="st3" width="24" height="50.7"/>
	<rect id="XMLID_2_" x="33.3" class="st4" width="16.7" height="50.7"/>
</g>
<g>
	<path class="st1" d="M571.9,32.1c-0.5-1.1-1.2-2.1-2.1-3c-0.9-0.9-2.1-1.7-3.4-2.3c-1.4-0.6-2.9-1-4.6-1.2c1.7-0.5,3.1-1.1,4.4-1.8
		c1.2-0.7,2.3-1.5,3.1-2.4c0.8-0.9,1.4-1.8,1.8-2.8c0.4-1,0.6-2,0.6-2.9c0-1.3-0.2-2.6-0.6-3.7c-0.3-1.2-0.9-2.1-1.8-3.1
		s-2-1.7-3.3-2.4c-1.3-0.6-3-1.1-4.9-1.5c-0.7-0.2-1.7-0.3-2.8-0.4c-1.1-0.1-2.4-0.2-3.9-0.3c-1.5-0.1-3.2-0.2-5.2-0.2
		C547.2,4,545,4,542.5,4h-25.2v5.6h9.7v32.5h-7.7v0h-1.4v0h0V48h25.3c3.9,0,7.3-0.1,10.2-0.2c2.9-0.1,5.5-0.4,7.8-0.8
		c2.1-0.4,3.8-0.9,5.3-1.6c1.4-0.7,2.6-1.5,3.5-2.5c1-1,1.6-2.1,2-3.3c0.4-1.3,0.6-2.6,0.6-4C572.6,34.4,572.4,33.2,571.9,32.1z
		 M535.1,9.7h13c2.2,0,4.1,0.1,5.6,0.1s2.9,0.2,4.1,0.6c1.7,0.5,3,1.3,3.8,2.3s1.2,2.1,1.2,3.4s-0.2,2.4-0.7,3.3s-1.3,1.6-2.4,2.2
		c-1.1,0.6-2.6,1-4.5,1.3s-4.3,0.4-7.2,0.4h0v0.1h-12.9V9.7z M563.2,36.9c-0.1,0.6-0.3,1.1-0.6,1.6s-0.7,1-1.2,1.4
		c-0.5,0.4-1.2,0.8-2,1.1c-1.3,0.5-2.8,0.8-4.5,0.9c-1.7,0.1-3.8,0.2-6.2,0.2v0h-13.8V27.7h13.2c1.9,0,3.7,0,5.3,0.1
		c1.6,0.1,3,0.3,4.2,0.7c2,0.6,3.5,1.5,4.4,2.6c0.9,1.1,1.4,2.5,1.4,4C563.4,35.7,563.3,36.3,563.2,36.9z"/>
	<rect x="517.8" y="42.1" class="st1" width="0.1" height="0"/>
</g>
</svg>
