<svg width="1375" height="153" viewBox="0 0 1375 153" fill="none" xmlns="http://www.w3.org/2000/svg">
<g clip-path="url(#clip0)">
<path d="M186.629 87.0484H198.606C203.763 91.6875 209.252 95.1668 215.241 97.3206C221.063 99.4745 227.217 100.634 233.705 100.634C236.533 100.634 239.028 100.303 241.357 99.8058C243.686 99.3088 245.682 98.4804 247.512 97.4863C249.175 96.4922 250.506 95.4982 251.504 94.1727C252.502 92.8473 253.001 91.5218 253.001 90.0307C253.001 88.3739 252.502 86.7171 251.338 85.3916C250.173 83.9005 248.51 82.5751 246.181 81.4153C243.852 80.2556 240.691 79.2615 236.865 78.4331C233.04 77.6047 228.548 76.9419 223.225 76.2792C217.07 75.6165 211.747 74.6224 207.422 73.297C203.097 71.8058 199.604 70.149 196.776 68.1609C193.948 66.1727 191.952 63.8532 190.788 61.368C189.457 58.8828 188.958 56.2319 188.958 53.581C188.958 51.0958 189.623 48.6106 191.121 46.1254C192.618 43.8058 194.78 41.652 197.774 39.8295C200.769 38.007 204.262 36.5159 208.753 35.3561C213.078 34.1964 218.235 33.6993 223.891 33.6993C227.217 33.6993 230.378 34.0307 233.04 34.5277C235.867 35.0248 238.363 35.6875 240.691 36.6816C243.02 37.51 245.183 38.6698 247.179 39.8295C249.175 40.9893 251.005 42.3147 252.835 43.8058V35.8532H265.976V56.8946H252.835C251.67 54.9064 250.173 53.084 248.343 51.4272C246.514 49.7703 244.351 48.2792 241.856 47.1195C239.361 45.9597 236.699 44.9656 233.871 44.3029C231.043 43.6402 227.883 43.3088 224.889 43.3088C221.562 43.3088 218.734 43.6402 216.072 44.1372C213.577 44.7999 211.415 45.4627 209.751 46.4567C208.088 47.4508 206.757 48.4449 205.925 49.6047C205.094 50.7644 204.595 51.9242 204.595 53.084C204.595 54.5751 204.927 55.9005 205.759 57.226C206.591 58.5514 207.921 59.7112 209.751 60.8709C211.581 62.0307 214.243 63.0248 217.569 63.8532C220.896 64.6816 225.055 65.51 230.212 66.1727C237.365 67.0011 243.353 68.1609 248.177 69.4863C253.001 70.8118 256.827 72.4686 259.821 74.4567C262.815 76.4449 264.812 78.5987 266.142 81.084C267.473 83.5692 267.972 86.5514 267.972 89.6993C267.972 92.1845 267.307 94.5041 265.976 96.9893C264.645 99.4745 262.649 101.628 259.987 103.616C257.326 105.605 253.999 107.261 249.84 108.421C245.682 109.581 240.858 110.244 235.368 110.244C231.875 110.244 228.548 110.078 225.388 109.581C222.227 109.084 219.067 108.421 216.239 107.593C213.244 106.764 210.417 105.605 207.589 104.279C204.761 102.954 202.099 101.463 199.438 99.8058V108.421H186.297V87.0484H186.629Z" fill="#252525"/>
<path fill-rule="evenodd" clip-rule="evenodd" d="M223.891 35.6378C218.333 35.6378 213.361 36.128 209.258 37.228L209.241 37.2327C204.912 38.3506 201.6 39.7724 198.788 41.4839C196.037 43.1581 194.099 45.1019 192.773 47.1489C191.46 49.3375 190.903 51.4713 190.903 53.581C190.903 55.9873 191.355 58.3095 192.504 60.4553L192.528 60.5009L192.55 60.5478C193.548 62.6777 195.298 64.7493 197.897 66.5768C200.521 68.4217 203.823 70.0026 208.026 71.4539C212.19 72.7269 217.372 73.6992 223.434 74.352L223.45 74.3537L223.466 74.3557C228.804 75.0202 233.365 75.6914 237.278 76.5388C241.18 77.3835 244.516 78.4194 247.05 79.6812C249.558 80.9302 251.461 82.4097 252.839 84.158C254.338 85.8883 254.946 88.0064 254.946 90.0307C254.946 92.0122 254.264 93.7366 253.059 95.3363C251.839 96.9566 250.259 98.1048 248.512 99.1488L248.478 99.1693L248.442 99.1883C246.484 100.252 244.312 101.158 241.764 101.701C239.325 102.222 236.692 102.573 233.705 102.573C226.983 102.573 220.602 101.371 214.572 99.1411C208.529 96.9661 203.011 93.5143 197.864 88.9869H188.241V106.483H197.493V96.3096L200.468 98.1617C203.08 99.7874 205.673 101.239 208.416 102.525C211.191 103.825 213.91 104.937 216.759 105.725L216.773 105.729L216.787 105.733C219.515 106.532 222.59 107.179 225.691 107.666C228.715 108.142 231.931 108.305 235.368 108.305C240.702 108.305 245.348 107.661 249.316 106.554C253.268 105.452 256.372 103.895 258.821 102.065C261.317 100.201 263.096 98.2515 264.26 96.0765C265.472 93.8125 266.027 91.8048 266.027 89.6993C266.027 86.7309 265.553 84.0998 264.427 81.9967C263.271 79.8389 261.516 77.9113 258.743 76.07C255.967 74.2265 252.345 72.6423 247.66 71.3551C242.949 70.0606 237.061 68.9174 229.987 68.0982L229.975 68.0968L229.963 68.0952C224.733 67.4231 220.5 66.5809 217.098 65.7338C213.689 64.8849 210.795 63.8294 208.708 62.5067C206.767 61.2764 205.162 59.9299 204.11 58.2538C203.067 56.5912 202.65 54.9027 202.65 53.0839C202.65 51.3631 203.387 49.81 204.343 48.4774C205.416 46.9809 207.035 45.8198 208.751 44.7942C210.678 43.6428 213.089 42.9234 215.572 42.2641L215.642 42.2453L215.714 42.2319C218.475 41.7163 221.424 41.3703 224.889 41.3703C228.016 41.3703 231.327 41.7153 234.317 42.4159C237.301 43.1153 240.09 44.1596 242.678 45.3626C245.362 46.6104 247.687 48.2137 249.651 49.9923C251.323 51.5061 252.749 53.1605 253.92 54.9561H264.031V37.7916H254.78V47.8947L251.604 45.3065C249.829 43.8602 248.084 42.599 246.2 41.5042C244.234 40.3624 242.195 39.2747 240.038 38.5072L239.981 38.4871L239.926 38.4635C237.774 37.545 235.432 36.9167 232.702 36.4367L232.692 36.4349L232.681 36.433C230.134 35.9573 227.093 35.6378 223.891 35.6378ZM208.257 33.4819C212.802 32.2641 218.141 31.7609 223.891 31.7609C227.338 31.7609 230.614 32.1033 233.388 32.6205C236.287 33.1307 238.915 33.821 241.402 34.8761C243.88 35.7639 246.147 36.986 248.158 38.1548C249.103 38.7035 250.008 39.2853 250.89 39.8985V33.9147H267.921V58.8331H251.718L251.155 57.8718C250.097 56.0658 248.729 54.3953 247.036 52.8619C245.34 51.3269 243.34 49.948 241.034 48.8763C238.632 47.7598 236.098 46.8159 233.426 46.1899C230.76 45.565 227.75 45.2473 224.889 45.2473C221.729 45.2473 219.043 45.5582 216.502 46.0292C214.029 46.6879 212.138 47.2904 210.751 48.1192C209.141 49.0818 208.098 49.9088 207.508 50.7319C206.8 51.7188 206.539 52.4853 206.539 53.0839C206.539 54.2474 206.788 55.2098 207.408 56.1981C208.02 57.1729 209.076 58.146 210.795 59.2352C212.368 60.232 214.796 61.1646 218.041 61.9725C221.29 62.7816 225.371 63.5956 230.449 64.2486C237.676 65.0862 243.76 66.2619 248.694 67.6176C253.657 68.9812 257.687 70.7107 260.9 72.8435C264.115 74.9785 266.352 77.3586 267.858 80.1712C269.393 83.0385 269.917 86.3718 269.917 89.6993C269.917 92.5643 269.141 95.1956 267.692 97.902C266.195 100.697 263.982 103.055 261.154 105.168C258.28 107.314 254.73 109.07 250.365 110.288C246.016 111.501 241.014 112.182 235.368 112.182C231.819 112.182 228.382 112.014 225.085 111.496C221.869 110.99 218.629 110.312 215.704 109.457C212.57 108.588 209.638 107.382 206.761 106.033C204.909 105.165 203.13 104.23 201.383 103.23V110.36H184.352V85.11H199.354L199.909 85.6094C204.914 90.1119 210.191 93.4436 215.901 95.4972L215.917 95.5032C221.529 97.5794 227.455 98.6958 233.705 98.6958C236.374 98.6958 238.732 98.3837 240.95 97.9103C243.045 97.463 244.855 96.7186 246.546 95.8032C248.107 94.8674 249.178 94.0322 249.948 93.0091C250.74 91.9579 251.056 91.0314 251.056 90.0307C251.056 88.7583 250.676 87.5813 249.874 86.6686L249.837 86.6265L249.803 86.5822C248.854 85.367 247.441 84.2097 245.312 83.1494C243.188 82.0917 240.203 81.1395 236.453 80.3273C232.718 79.5187 228.302 78.865 223 78.2047C216.775 77.5337 211.327 76.5217 206.851 75.1498L206.819 75.1399L206.787 75.1289C202.355 73.601 198.68 71.8717 195.655 69.7449C192.616 67.6079 190.381 65.0569 189.048 62.2351C187.554 59.424 187.013 56.4609 187.013 53.581C187.013 50.7285 187.783 47.9004 189.453 45.1275L189.469 45.1018L189.485 45.0766C191.152 42.4938 193.534 40.1391 196.761 38.1751C199.935 36.2428 203.607 34.6833 208.257 33.4819Z" fill="#252525"/>
<path d="M283.609 98.6461H299.411V44.8H283.609V35.5219H370.607V58.2201H357.466V44.8H313.218V67.8295H342.495V75.1195H313.218V98.6461H357.466V85.226H370.607V107.924H283.609V98.6461V98.6461Z" fill="#252525"/>
<path fill-rule="evenodd" clip-rule="evenodd" d="M281.664 33.5834H372.552V60.1585H355.521V46.7384H315.163V65.8911H344.44V77.0579H315.163V96.7076H355.521V83.2875H372.552V109.863H281.664V98.6461V96.7076H283.608H297.466V46.7384H281.664V33.5834ZM285.553 100.585V105.986H368.662V87.1644H359.411V100.585H311.273V73.181H340.55V69.768H311.273V42.8615H359.411V56.2816H368.662V37.4603H285.553V42.8615H301.356V100.585H285.553Z" fill="#252525"/>
<path d="M387.242 98.6461H399.884L438.31 35.5219H450.952L488.712 98.6461H503.85V107.924H458.77V98.6461H472.91L464.426 83.7349H423.671L415.354 98.6461H428.828V107.924H387.242V98.6461ZM460.434 76.6106L443.965 47.6165L427.83 76.6106H460.434Z" fill="#252525"/>
<path fill-rule="evenodd" clip-rule="evenodd" d="M437.215 33.5834H452.057L489.817 96.7076H505.795V109.863H456.825V96.7076H469.571L463.293 85.6733H424.815L418.661 96.7076H430.773V109.863H385.297V96.7076H398.789L437.215 33.5834ZM439.405 37.4603L400.979 100.585H389.187V105.986H426.883V100.585H412.048L422.527 81.7964H465.559L476.248 100.585H460.715V105.986H501.905V100.585H487.608L449.847 37.4603H439.405ZM443.948 43.6512L463.77 78.5491H424.527L443.948 43.6512ZM443.983 51.5818L431.133 74.6721H457.098L443.983 51.5818Z" fill="#252525"/>
<path d="M520.983 98.6461H540.945V44.8H512.999V59.8769H499.857V35.5219H595.007V60.0426H581.866V44.9656H553.92V98.6461H573.881V107.924H520.983V98.6461Z" fill="#252525"/>
<path fill-rule="evenodd" clip-rule="evenodd" d="M497.913 33.5834H596.952V61.981H579.921V46.9041H555.865V96.7076H575.826V109.863H519.038V96.7076H539V46.7384H514.944V61.8153H497.913V33.5834ZM501.802 37.4603V57.9384H511.054V42.8615H542.89V100.585H522.928V105.986H571.936V100.585H551.975V43.0272H583.811V58.1041H593.062V37.4603H501.802Z" fill="#252525"/>
<path d="M611.974 35.5219V59.8769H625.115V44.8H653.061V98.6461H634.431H633.266V99.8059V107.924H686.164V98.6461H666.203V44.9656H694.149V60.0426H707.29V35.5219H611.974Z" fill="#252525"/>
<path fill-rule="evenodd" clip-rule="evenodd" d="M610.029 33.5834H709.235V61.981H692.204V46.9041H668.148V96.7076H688.109V109.863H631.321V96.7076H651.117V46.7384H627.06V61.8153H610.029V33.5834ZM613.919 37.4603V57.9384H623.171V42.8615H655.006V100.585H635.211V105.986H684.219V100.585H664.258V43.0272H696.094V58.1041H705.345V37.4603H613.919Z" fill="#252525"/>
<path d="M725.089 98.6461H740.226V44.8H724.091V35.5219H770.002V44.8H753.7V98.6461H794.289V81.7467H807.43V107.924H725.089V98.6461Z" fill="#252525"/>
<path fill-rule="evenodd" clip-rule="evenodd" d="M722.146 33.5834H771.947V46.7384H755.645V96.7076H792.344V79.8082H809.375V109.863H723.144V96.7076H738.281V46.7384H722.146V33.5834ZM726.036 37.4603V42.8615H742.171V100.585H727.034V105.986H805.485V83.6851H796.233V100.585H751.755V42.8615H768.057V37.4603H726.036Z" fill="#252525"/>
<path d="M825.062 98.6461H840.865V44.8H825.062V35.5219H912.061V58.2201H898.92V44.8H854.505V67.8295H883.782V75.1195H854.505V98.6461H898.753V85.226H911.895V107.924H824.896L825.062 98.6461Z" fill="#252525"/>
<path fill-rule="evenodd" clip-rule="evenodd" d="M823.117 33.5834H914.006V60.1585H896.975V46.7384H856.45V65.8911H885.727V77.0579H856.45V96.7076H896.808V83.2875H913.839V109.863H822.916L823.152 96.7076H838.92V46.7384H823.117V33.5834ZM827.007 37.4603V42.8615H842.81V100.585H826.973L826.876 105.986H909.95V87.1644H900.698V100.585H852.56V73.181H881.837V69.768H852.56V42.8615H900.864V56.2816H910.116V37.4603H827.007Z" fill="#252525"/>
<path d="M942.502 98.6461H957.806V44.8H941.67V35.5219H983.589C987.748 35.5219 991.408 35.5219 994.734 35.6875C998.061 35.6875 1000.89 35.8532 1003.38 36.0189C1005.88 36.1846 1008.04 36.3503 1009.87 36.5159C1011.7 36.6816 1013.37 36.8473 1014.53 37.1787C1017.69 37.8414 1020.52 38.6698 1022.68 39.6639C1024.84 40.8236 1026.67 41.9834 1028.17 43.6402C1029.67 45.297 1030.67 46.7881 1031.16 48.7763C1031.83 50.5988 1032.16 52.7526 1032.16 54.9065C1032.16 56.3976 1031.83 58.0544 1031.16 59.7112C1030.5 61.368 1029.5 62.8591 1028.17 64.3503C1026.84 65.8414 1025.01 67.1668 1023.01 68.3266C1020.85 69.4863 1018.52 70.4804 1015.69 71.3088C1018.52 71.6402 1021.02 72.3029 1023.35 73.297C1025.51 74.2911 1027.5 75.6165 1029 77.1076C1030.5 78.5988 1031.66 80.2556 1032.49 82.0781C1033.33 83.9005 1033.66 85.8887 1033.66 87.8769C1033.66 90.1964 1033.33 92.3502 1032.66 94.5041C1032 96.4923 1031 98.3148 1029.33 99.9716C1027.84 101.628 1025.84 102.954 1023.51 104.114C1021.02 105.273 1018.19 106.102 1014.7 106.764C1010.87 107.427 1006.55 107.924 1001.72 108.09C996.897 108.256 991.241 108.421 984.754 108.421H942.668L942.502 98.6461ZM992.738 67.4982C997.562 67.4982 1001.55 67.3325 1004.72 66.8355C1007.88 66.3384 1010.37 65.6757 1012.2 64.6816C1014.03 63.6875 1015.36 62.5278 1016.19 61.0366C1017.02 59.5455 1017.36 57.723 1017.36 55.5692C1017.36 53.4153 1016.69 51.5929 1015.36 49.9361C1014.03 48.2792 1011.87 46.9538 1009.04 46.1254C1007.04 45.4627 1004.72 45.1313 1002.22 45.1313C999.725 45.1313 996.564 44.9656 992.905 44.9656H971.28V67.6639H992.738V67.4982ZM993.903 98.6461C997.895 98.6461 1001.39 98.4804 1004.22 98.3148C1007.04 98.1491 1009.54 97.652 1011.7 96.8236C1013.03 96.3266 1014.2 95.6639 1015.03 95.0011C1015.86 94.3384 1016.53 93.51 1017.02 92.6816C1017.52 91.8532 1017.86 91.0248 1018.02 90.0307C1018.19 89.0366 1018.36 88.0426 1018.36 87.0485C1018.36 84.5633 1017.52 82.2437 1016.03 80.4213C1014.53 78.5988 1012.03 77.1076 1008.71 76.1136C1006.71 75.4508 1004.38 75.1195 1001.72 74.9538C999.059 74.7881 996.065 74.7881 992.905 74.7881H970.947V98.6461H993.903Z" fill="white"/>
<path fill-rule="evenodd" clip-rule="evenodd" d="M939.726 33.5834H983.625C987.736 33.5834 991.421 33.5834 994.783 33.7491C998.154 33.7507 1001.02 33.919 1003.51 34.0847C1006.02 34.2511 1008.2 34.4179 1010.05 34.5854C1011.79 34.7432 1013.62 34.9168 1014.99 35.2951C1018.2 35.9704 1021.16 36.8309 1023.5 37.9036L1023.55 37.9286L1023.6 37.9568C1025.82 39.1475 1027.89 40.4341 1029.62 42.3429C1031.2 44.0983 1032.41 45.8426 1033.03 48.2074C1033.76 50.2573 1034.11 52.6049 1034.11 54.9065C1034.11 56.6751 1033.71 58.5761 1032.97 60.4315C1032.2 62.3465 1031.06 64.0254 1029.62 65.6386C1028.1 67.3436 1026.08 68.7897 1023.99 70.0013L1023.96 70.0179L1023.93 70.0336C1023.42 70.3099 1022.9 70.5773 1022.36 70.8357C1022.95 71.0431 1023.54 71.2695 1024.11 71.5151L1024.14 71.5256L1024.16 71.5367C1026.49 72.6083 1028.69 74.0555 1030.38 75.7365C1032.03 77.383 1033.33 79.2302 1034.27 81.2754C1035.24 83.4048 1035.6 85.6791 1035.6 87.8769C1035.6 90.3913 1035.24 92.7373 1034.52 95.0745L1034.51 95.0961L1034.51 95.1175C1033.77 97.3252 1032.64 99.4111 1030.74 101.307C1029.03 103.193 1026.81 104.638 1024.38 105.848L1024.36 105.859L1024.33 105.87C1021.65 107.119 1018.65 107.987 1015.06 108.669L1015.04 108.672L1015.03 108.674C1011.12 109.351 1006.71 109.858 1001.79 110.027C996.956 110.193 991.274 110.36 984.754 110.36H940.756L940.524 96.7076H955.861V46.7384H939.726V33.5834ZM943.615 37.4603V42.8615H959.751V100.585H944.48L944.581 106.483H984.754C991.208 106.483 996.838 106.318 1001.65 106.153C1006.38 105.99 1010.61 105.504 1014.35 104.857C1017.72 104.216 1020.37 103.431 1022.67 102.368C1024.87 101.27 1026.62 100.078 1027.89 98.6743L1027.92 98.6364L1027.96 98.6004C1029.37 97.1977 1030.22 95.6579 1030.81 93.912C1031.41 91.9488 1031.71 89.9937 1031.71 87.8769C1031.71 86.0983 1031.42 84.3963 1030.72 82.8807C1029.99 81.281 1028.97 79.8145 1027.63 78.4788C1026.33 77.1828 1024.54 75.9836 1022.56 75.0684C1020.42 74.1579 1018.11 73.5438 1015.47 73.234L1006.01 72.1257L1015.15 69.449C1017.83 68.664 1020.02 67.7275 1022.06 66.6352C1023.96 65.5318 1025.58 64.3327 1026.72 63.0619C1027.94 61.6928 1028.8 60.3895 1029.36 58.9908C1029.94 57.5327 1030.22 56.12 1030.22 54.9065C1030.22 52.9355 1029.91 51.0121 1029.34 49.4391L1029.3 49.3445L1029.28 49.2467C1028.89 47.6854 1028.11 46.4713 1026.72 44.9374C1025.47 43.5446 1023.89 42.5173 1021.81 41.3996C1019.84 40.5015 1017.19 39.7179 1014.13 39.0756L1014.06 39.0615L1014 39.0426C1013.04 38.7718 1011.58 38.6173 1009.7 38.4464C1007.89 38.2826 1005.74 38.118 1003.26 37.9531C1000.77 37.7882 997.996 37.626 994.735 37.626H994.686L994.637 37.6236C991.369 37.4608 987.761 37.4603 983.589 37.4603H943.615ZM969.335 43.0272H992.905C994.762 43.0272 996.49 43.0692 998.051 43.1107C998.199 43.1146 998.345 43.1185 998.49 43.1224C999.882 43.1597 1001.12 43.1928 1002.22 43.1928C1004.87 43.1928 1007.4 43.5414 1009.62 44.2753C1012.69 45.18 1015.23 46.6769 1016.88 48.7246C1018.48 50.7159 1019.3 52.9632 1019.3 55.5692C1019.3 57.9006 1018.95 60.0906 1017.89 61.9785C1016.83 63.8887 1015.17 65.2768 1013.13 66.3836C1011 67.5392 1008.24 68.243 1005.02 68.7502C1002.15 69.2006 998.694 69.385 994.683 69.4269V69.6023H969.335V43.0272ZM990.793 65.7254V65.5597H992.738C997.541 65.5597 1001.41 65.3931 1004.41 64.9207C1007.51 64.4338 1009.74 63.8121 1011.27 62.9796C1012.89 62.0983 1013.9 61.1668 1014.49 60.0947C1015.1 59.0004 1015.41 57.5454 1015.41 55.5692C1015.41 53.8674 1014.91 52.4698 1013.84 51.1475C1012.83 49.8889 1011.06 48.7384 1008.49 47.9852L1008.46 47.9754L1008.43 47.9645C1006.67 47.3805 1004.55 47.0698 1002.22 47.0698C1001.06 47.0698 999.772 47.0351 998.393 46.9981C998.245 46.9942 998.097 46.9902 997.947 46.9862C996.39 46.9449 994.707 46.9041 992.905 46.9041H973.225V65.7254H990.793ZM969.002 72.8496H992.946C996.076 72.8496 999.12 72.8496 1001.84 73.0191C1004.56 73.1885 1007.07 73.5322 1009.29 74.2651C1012.83 75.3259 1015.71 76.9767 1017.53 79.1932C1019.32 81.3716 1020.3 84.1279 1020.3 87.0485C1020.3 88.2043 1020.11 89.3331 1019.95 90.2853L1019.94 90.3496C1019.73 91.6119 1019.3 92.6684 1018.69 93.6794C1018.1 94.6621 1017.29 95.6801 1016.24 96.5152C1015.23 97.3195 1013.89 98.0764 1012.39 98.6357C1010.01 99.5479 1007.31 100.075 1004.33 100.25C1001.48 100.417 997.949 100.585 993.903 100.585H969.002V72.8496ZM972.892 76.7266V96.7076H993.903C997.842 96.7076 1001.29 96.5442 1004.1 96.3796C1006.77 96.2231 1009.06 95.7571 1011 95.0142L1011.02 95.0084C1012.18 94.5739 1013.16 94.0067 1013.81 93.487C1014.43 92.9967 1014.95 92.358 1015.36 91.6838C1015.75 91.038 1015.98 90.4377 1016.1 89.7118C1016.28 88.6892 1016.41 87.8547 1016.41 87.0485C1016.41 84.9986 1015.73 83.1159 1014.52 81.6493C1013.35 80.2266 1011.25 78.8981 1008.15 77.9704L1008.12 77.9619L1008.09 77.9527C1006.33 77.3665 1004.19 77.0497 1001.6 76.8885C999.011 76.7273 996.081 76.7266 992.905 76.7266H972.892Z" fill="white"/>
<path d="M1050.29 98.6461H1066.1V44.8H1050.29V35.5219H1137.29V58.2201H1123.98V44.8H1079.74V67.8295H1109.01V75.1195H1079.74V98.6461H1123.98V85.226H1137.13V107.924H1050.13L1050.29 98.6461Z" fill="white"/>
<path fill-rule="evenodd" clip-rule="evenodd" d="M1048.35 33.5834H1139.24V60.1585H1122.04V46.7384H1081.68V65.8911H1110.96V77.0579H1081.68V96.7076H1122.04V83.2875H1139.07V109.863H1048.15L1048.38 96.7076H1064.15V46.7384H1048.35V33.5834ZM1052.24 37.4603V42.8615H1068.04V100.585H1052.2L1052.11 105.986H1135.18V87.1644H1125.93V100.585H1077.79V73.181H1107.07V69.768H1077.79V42.8615H1125.93V56.2816H1135.35V37.4603H1052.24Z" fill="white"/>
<path d="M1155.92 98.6461H1171.73V44.8H1155.92V35.5219H1242.92V58.2201H1229.78V44.8H1185.53V67.8295H1214.81V75.1195H1185.53V98.6461H1229.78V85.226H1242.92V107.924H1155.92V98.6461Z" fill="white"/>
<path fill-rule="evenodd" clip-rule="evenodd" d="M1153.98 33.5834H1244.87V60.1585H1227.84V46.7384H1187.48V65.8911H1216.75V77.0579H1187.48V96.7076H1227.84V83.2875H1244.87V109.863H1153.98V96.7076H1169.78V46.7384H1153.98V33.5834ZM1157.87 37.4603V42.8615H1173.67V100.585H1157.87V105.986H1240.98V87.1644H1231.73V100.585H1183.59V73.181H1212.86V69.768H1183.59V42.8615H1231.73V56.2816H1240.98V37.4603H1157.87Z" fill="white"/>
<path d="M1262.05 98.6461H1277.36V44.8H1261.22V35.5219H1309.13C1313.62 35.5219 1317.61 35.5219 1321.27 35.6875C1324.93 35.8532 1328.09 36.1846 1331.08 36.6816C1334.58 37.3443 1337.41 38.1727 1339.9 39.4982C1342.4 40.8236 1344.23 42.1491 1345.72 43.6402C1347.22 45.297 1348.38 47.1195 1349.05 49.2733C1349.72 51.4272 1350.05 53.581 1350.05 56.0662C1350.05 60.5396 1348.72 64.3503 1345.89 67.6639C1343.06 70.9775 1338.9 73.4627 1333.25 75.2852C1332.58 75.4508 1331.75 75.7822 1331.08 75.9479C1330.42 76.1136 1329.59 76.2792 1328.76 76.4449C1330.75 77.6047 1332.91 78.9301 1334.91 80.5869C1336.91 82.2437 1338.9 84.0662 1340.57 86.0544C1342.23 88.0426 1343.89 90.0307 1345.22 92.1846C1346.55 94.3384 1347.39 96.4923 1348.05 98.4804H1359.86V107.759H1318.61V98.6461H1332.58C1331.92 96.4923 1330.92 94.3384 1329.42 92.1846C1327.92 90.0307 1326.26 87.8769 1324.26 85.8887C1322.27 83.9005 1320.11 82.2437 1317.44 80.7526C1314.95 79.2615 1312.29 78.2674 1309.46 77.7704H1290.66V98.6461H1304.97V107.924H1262.22L1262.05 98.6461ZM1311.79 68.6579C1316.45 68.6579 1320.27 68.3266 1323.43 67.8295C1326.59 67.3325 1328.92 66.5041 1330.75 65.51C1332.58 64.5159 1333.91 63.1905 1334.74 61.6994C1335.58 60.2082 1335.91 58.3858 1335.91 56.5633C1335.91 54.0781 1335.08 51.9242 1333.41 50.1017C1331.75 48.2792 1328.92 46.7881 1325.26 45.794C1323.43 45.297 1321.6 45.1313 1319.27 44.9656C1316.95 44.8 1314.62 44.8 1311.96 44.8H1290.83V68.6579H1311.79Z" fill="white"/>
<path fill-rule="evenodd" clip-rule="evenodd" d="M1259.27 33.5834H1309.16C1313.63 33.5834 1317.65 33.5834 1321.36 33.7511C1325.09 33.9199 1328.33 34.2585 1331.4 34.7695L1331.43 34.7731L1331.45 34.7773C1335.03 35.4577 1338.08 36.3326 1340.82 37.7875C1343.44 39.183 1345.44 40.6158 1347.1 42.269L1347.13 42.305L1347.17 42.3429C1348.81 44.1576 1350.14 46.2205 1350.91 48.7029C1351.63 51.0469 1351.99 53.3933 1351.99 56.0662C1351.99 60.9684 1350.52 65.2325 1347.37 68.9198C1344.23 72.5945 1339.72 75.2378 1333.85 77.1296L1333.78 77.1499L1333.72 77.1658C1333.69 77.1738 1333.65 77.1824 1333.62 77.1916C1334.47 77.7761 1335.33 78.4082 1336.16 79.0973C1338.19 80.7877 1340.29 82.6958 1342.06 84.8129L1342.1 84.8644C1343.74 86.8177 1345.48 88.8955 1346.88 91.1681C1348.02 93.0139 1348.81 94.8451 1349.43 96.542H1361.81V109.697H1316.66V96.7076H1329.77C1329.26 95.5698 1328.62 94.4308 1327.82 93.2885C1326.36 91.1871 1324.77 89.1356 1322.89 87.2599C1321.02 85.3957 1319 83.8463 1316.49 82.4424L1316.47 82.4291L1316.44 82.4151C1314.2 81.0731 1311.82 80.1733 1309.29 79.7088H1292.61V96.7076H1306.91V109.863H1260.31L1260.07 96.7076H1275.41V46.7384H1259.27V33.5834ZM1263.16 37.4603V42.8615H1279.3V100.585H1264.03L1264.13 105.986H1303.02V100.585H1288.72V75.8319H1309.63L1309.8 75.8614C1312.85 76.3985 1315.73 77.4725 1318.42 79.076C1321.23 80.6509 1323.52 82.4113 1325.64 84.5175C1327.75 86.6181 1329.49 88.8743 1331.02 91.0806C1332.64 93.4062 1333.72 95.7415 1334.44 98.0757L1335.22 100.585H1320.55V105.82H1357.92V100.419H1346.65L1346.21 99.0938C1345.56 97.1648 1344.79 95.1712 1343.57 93.201C1342.32 91.1859 1340.75 89.3039 1339.07 87.2959C1337.52 85.4366 1335.62 83.6997 1333.67 82.0765C1331.8 80.5274 1329.75 79.2679 1327.78 78.1196L1323.35 75.5457L1328.37 74.544C1329.22 74.3755 1330 74.2193 1330.61 74.0672C1330.86 74.006 1331.16 73.908 1331.55 73.7774L1331.59 73.766C1331.92 73.6565 1332.32 73.5219 1332.71 73.4221C1338.12 71.671 1341.9 69.35 1344.41 66.4079C1346.92 63.468 1348.1 60.1108 1348.1 56.0662C1348.1 53.7687 1347.8 51.8075 1347.19 49.8438C1346.63 48.0339 1345.65 46.4631 1344.31 44.9755C1342.98 43.6604 1341.33 42.4529 1338.99 41.2088C1336.74 40.0155 1334.13 39.2343 1330.74 38.59C1327.84 38.109 1324.76 37.7861 1321.18 37.624C1317.58 37.4607 1313.63 37.4603 1309.13 37.4603H1263.16ZM1288.88 42.8615H1312C1314.63 42.8615 1317.01 42.8615 1319.41 43.0321C1321.74 43.1974 1323.74 43.3712 1325.77 43.9238C1329.61 44.9662 1332.84 46.5919 1334.85 48.7973C1336.84 50.9801 1337.85 53.6002 1337.85 56.5633C1337.85 58.5928 1337.49 60.7711 1336.44 62.6412C1335.42 64.481 1333.81 66.0581 1331.68 67.212C1329.63 68.3262 1327.09 69.2175 1323.74 69.7443C1320.47 70.2584 1316.54 70.5964 1311.79 70.5964H1288.88V42.8615ZM1292.77 46.7384V66.7195H1311.79C1316.35 66.7195 1320.08 66.3948 1323.13 65.9148C1326.1 65.4475 1328.21 64.682 1329.82 63.808C1331.36 62.9737 1332.41 61.9 1333.04 60.7574C1333.66 59.6454 1333.96 58.1787 1333.96 56.5633C1333.96 54.5559 1333.31 52.8683 1331.98 51.4062C1330.66 49.9666 1328.23 48.61 1324.75 47.6643C1323.13 47.2228 1321.47 47.0652 1319.14 46.8992C1316.89 46.7393 1314.63 46.7384 1311.96 46.7384H1292.77Z" fill="white"/>
</g>
<path fill-rule="evenodd" clip-rule="evenodd" d="M64.9844 29.2291C65.2337 27.1474 65.4505 25.1154 65.639 23.1552C63.1465 24.1793 60.5407 25.2899 57.8793 26.4794C50.0041 29.999 41.9022 34.0945 34.8881 38.55C27.6801 43.1287 22.5999 47.4789 19.8268 51.1971C13.6048 59.5402 15.0485 71.4225 23.221 78.1633C22.6362 84.3966 23.3089 90.69 25.1756 96.6518C21.5084 95.4822 17.9676 93.692 14.7058 91.2595C-0.970906 79.5681 -4.26415 57.4656 7.35016 41.8923C19.1062 26.1288 48.4323 12.995 66.7642 5.96347C76.0013 2.42043 82.4471 0.426758 82.4471 0.426758C82.4471 0.426758 82.4582 7.17062 81.7628 17.0544C81.6696 18.3787 81.5637 19.7594 81.4435 21.1877C81.3127 21.2459 81.1817 21.3043 81.0506 21.3629C75.8632 23.6813 70.3851 26.3152 64.9844 29.2291Z" fill="#7A421B"/>
<path fill-rule="evenodd" clip-rule="evenodd" d="M59.7562 99.5276C59.2602 99.2206 58.7728 98.8892 58.2956 98.5333C49.4316 91.9227 47.6943 79.5526 54.1118 70.9476C56.8848 67.2294 61.965 62.8792 69.173 58.3005C76.1871 53.8449 84.289 49.7495 92.1642 46.2298C94.8256 45.0404 97.4314 43.9298 99.9239 42.9057C99.6886 45.3533 99.4091 47.9129 99.0772 50.5413C104.581 47.4634 110.227 44.674 115.618 42.2114C115.785 40.3273 115.927 38.5189 116.048 36.8049C116.743 26.9211 116.732 20.1772 116.732 20.1772C116.732 20.1772 110.286 22.1709 101.049 25.714C82.7172 32.7455 53.3911 45.8793 41.6351 61.6428C30.0208 77.2161 33.314 99.3186 48.9907 111.01C53 114 57.431 116.02 62 117.109C60.1513 111.448 59.3851 105.474 59.7562 99.5276Z" fill="#E57425"/>
<path fill-rule="evenodd" clip-rule="evenodd" d="M94.9448 118.442C103.809 125.052 116.161 123.19 122.578 114.585C125.576 110.564 128.383 104.277 130.728 96.0876C133.021 88.0819 134.609 79.2118 135.688 70.7539C136.037 68.0188 136.329 65.356 136.573 62.8141C134.081 63.8382 131.475 64.9488 128.813 66.1382C120.938 69.6579 112.836 73.7533 105.822 78.2089C98.6142 82.7876 93.534 87.1377 90.761 90.856C84.3435 99.461 86.0808 111.831 94.9448 118.442ZM137.698 45.6224C119.366 52.6539 90.0403 65.7877 78.2843 81.5512C66.67 97.1245 69.9632 119.227 85.6399 130.918C101.317 142.61 123.44 139.463 135.055 123.889C147.255 107.53 151.334 76.0886 152.697 56.7133C153.392 46.8295 153.381 40.0856 153.381 40.0856C153.381 40.0856 146.935 42.0793 137.698 45.6224Z" fill="#F8BD15"/>
<defs>
<clipPath id="clip0">
<rect width="1294" height="84" fill="white" transform="translate(81 28.8947)"/>
</clipPath>
</defs>
</svg>
