<?xml version="1.0" encoding="utf-8"?>
<!-- Generator: Adobe Illustrator 19.0.0, SVG Export Plug-In . SVG Version: 6.00 Build 0)  -->
<!DOCTYPE svg PUBLIC "-//W3C//DTD SVG 1.1//EN" "http://www.w3.org/Graphics/SVG/1.1/DTD/svg11.dtd">
<svg version="1.1" id="Layer_1" xmlns="http://www.w3.org/2000/svg" xmlns:xlink="http://www.w3.org/1999/xlink" x="0px" y="0px"
	 viewBox="-90 255.3 777.9 50.7" style="enable-background:new -90 255.3 777.9 50.7;" xml:space="preserve">
<style type="text/css">
	.st0{fill:#252525;stroke:#252525;stroke-width:3;stroke-miterlimit:10;}
	.st1{fill:#FFFFFF;stroke:#FFFFFF;stroke-width:3;stroke-miterlimit:10;}
	.st2{fill:#7A421B;}
	.st3{fill:#E57425;}
	.st4{fill:#F8BD15;}
</style>
<path id="XMLID_104_" class="st0" d="M-24.5,289.4h7.2c3.1,2.8,6.4,4.9,10,6.2c3.5,1.3,7.2,2,11.1,2c1.7,0,3.2-0.2,4.6-0.5
	s2.6-0.8,3.7-1.4c1-0.6,1.8-1.2,2.4-2s0.9-1.6,0.9-2.5c0-1-0.3-2-1-2.8c-0.7-0.9-1.7-1.7-3.1-2.4c-1.4-0.7-3.3-1.3-5.6-1.8
	s-5-0.9-8.2-1.3c-3.7-0.4-6.9-1-9.5-1.8c-2.6-0.9-4.7-1.9-6.4-3.1s-2.9-2.6-3.6-4.1c-0.8-1.5-1.1-3.1-1.1-4.7c0-1.5,0.4-3,1.3-4.5
	c0.9-1.4,2.2-2.7,4-3.8s3.9-2,6.6-2.7c2.6-0.7,5.7-1,9.1-1c2,0,3.9,0.2,5.5,0.5c1.7,0.3,3.2,0.7,4.6,1.3c1.4,0.5,2.7,1.2,3.9,1.9
	c1.2,0.7,2.3,1.5,3.4,2.4v-4.8h7.9v12.7h-7.9c-0.7-1.2-1.6-2.3-2.7-3.3s-2.4-1.9-3.9-2.6s-3.1-1.3-4.8-1.7S0.3,263-1.5,263
	c-2,0-3.7,0.2-5.3,0.5c-1.5,0.4-2.8,0.8-3.8,1.4c-1,0.6-1.8,1.2-2.3,1.9s-0.8,1.4-0.8,2.1c0,0.9,0.2,1.7,0.7,2.5s1.3,1.5,2.4,2.2
	c1.1,0.7,2.7,1.3,4.7,1.8s4.5,1,7.6,1.4c4.3,0.5,7.9,1.2,10.8,2s5.2,1.8,7,3s3,2.5,3.8,4s1.1,3.3,1.1,5.2c0,1.5-0.4,2.9-1.2,4.4
	s-2,2.8-3.6,4s-3.6,2.2-6.1,2.9s-5.4,1.1-8.7,1.1c-2.1,0-4.1-0.1-6-0.4s-3.8-0.7-5.5-1.2c-1.8-0.5-3.5-1.2-5.2-2s-3.3-1.7-4.9-2.7
	v5.2h-7.9v-12.9H-24.5L-24.5,289.4z"/>
<path id="XMLID_102_" class="st0" d="M35.8,296.4h9.5v-32.5h-9.5v-5.6h52.3V272h-7.9v-8.1H53.6v13.9h17.6v4.4H53.6v14.2h26.6v-8.1
	h7.9V302H35.8V296.4z"/>
<path id="XMLID_99_" class="st0" d="M96.1,296.4h7.6l23.1-38.1h7.6l22.7,38.1h9.1v5.6h-27.1v-5.6h8.5l-5.1-9H118l-5,9h8.1v5.6h-25
	V296.4z M140.1,283.1l-9.9-17.5l-9.7,17.5H140.1z"/>
<path id="XMLID_97_" class="st0" d="M184.5,296.4h12v-32.5h-16.8v9.1h-7.9v-14.7H229v14.8h-7.9V264h-16.8v32.4h12v5.6h-31.8
	L184.5,296.4L184.5,296.4z"/>
<path id="XMLID_95_" class="st0" d="M249.9,296.4h12v-32.5h-16.8v9.1h-7.9v-14.7h57.3v14.8h-7.9V264h-16.8v32.4h12v5.6H250v-5.6
	L249.9,296.4L249.9,296.4z"/>
<path id="XMLID_93_" class="st0" d="M304.2,296.4h9.1v-32.5h-9.7v-5.6h27.6v5.6h-9.8v32.5h24.4v-10.2h7.9V302h-49.5V296.4z"/>
<path id="XMLID_91_" class="st0" d="M364.3,296.4h9.5v-32.5h-9.5v-5.6h52.3V272h-7.9v-8.1H382v13.9h17.6v4.4H382v14.2h26.6v-8.1h7.9
	V302h-52.3L364.3,296.4L364.3,296.4z"/>
<path id="XMLID_87_" class="st1" d="M429.9,296.4h9.2v-32.5h-9.7v-5.6h25.2c2.5,0,4.7,0,6.7,0.1c2,0,3.7,0.1,5.2,0.2
	c1.5,0.1,2.8,0.2,3.9,0.3c1.1,0.1,2.1,0.2,2.8,0.4c1.9,0.4,3.6,0.9,4.9,1.5c1.3,0.7,2.4,1.4,3.3,2.4s1.5,1.9,1.8,3.1
	c0.4,1.1,0.6,2.4,0.6,3.7c0,0.9-0.2,1.9-0.6,2.9c-0.4,1-1,1.9-1.8,2.8c-0.8,0.9-1.9,1.7-3.1,2.4c-1.3,0.7-2.7,1.3-4.4,1.8
	c1.7,0.2,3.2,0.6,4.6,1.2c1.3,0.6,2.5,1.4,3.4,2.3c0.9,0.9,1.6,1.9,2.1,3c0.5,1.1,0.7,2.3,0.7,3.5c0,1.4-0.2,2.7-0.6,4
	c-0.4,1.2-1,2.3-2,3.3c-0.9,1-2.1,1.8-3.5,2.5c-1.5,0.7-3.2,1.2-5.3,1.6c-2.3,0.4-4.9,0.7-7.8,0.8c-2.9,0.1-6.3,0.2-10.2,0.2H430
	v-5.9L429.9,296.4L429.9,296.4z M460.1,277.6c2.9,0,5.3-0.1,7.2-0.4s3.4-0.7,4.5-1.3c1.1-0.6,1.9-1.3,2.4-2.2s0.7-2,0.7-3.3
	s-0.4-2.4-1.2-3.4s-2.1-1.8-3.8-2.3c-1.2-0.4-2.6-0.6-4.1-0.6s-3.4-0.1-5.6-0.1h-13v13.7h12.9L460.1,277.6L460.1,277.6z
	 M460.8,296.4c2.4,0,4.5-0.1,6.2-0.2c1.7-0.1,3.2-0.4,4.5-0.9c0.8-0.3,1.5-0.7,2-1.1c0.5-0.4,0.9-0.9,1.2-1.4s0.5-1,0.6-1.6
	c0.1-0.6,0.2-1.2,0.2-1.8c0-1.5-0.5-2.9-1.4-4c-0.9-1.1-2.4-2-4.4-2.6c-1.2-0.4-2.6-0.6-4.2-0.7c-1.6-0.1-3.4-0.1-5.3-0.1H447v14.4
	L460.8,296.4L460.8,296.4z"/>
<path id="XMLID_85_" class="st1" d="M495.7,296.4h9.5v-32.5h-9.5v-5.6H548V272h-8v-8.1h-26.6v13.9H531v4.4h-17.6v14.2H540v-8.1h7.9
	V302h-52.3L495.7,296.4L495.7,296.4z"/>
<path id="XMLID_83_" class="st1" d="M561.2,296.4h9.5v-32.5h-9.5v-5.6h52.3V272h-7.9v-8.1H579v13.9h17.6v4.4H579v14.2h26.6v-8.1h7.9
	V302h-52.3L561.2,296.4L561.2,296.4z"/>
<path id="XMLID_80_" class="st1" d="M627,296.4h9.2v-32.5h-9.7v-5.6h28.8c2.7,0,5.1,0,7.3,0.1c2.2,0.1,4.1,0.3,5.9,0.6
	c2.1,0.4,3.8,0.9,5.3,1.7c1.5,0.8,2.6,1.6,3.5,2.5c0.9,1,1.6,2.1,2,3.4s0.6,2.6,0.6,4.1c0,2.7-0.8,5-2.5,7s-4.2,3.5-7.6,4.6
	c-0.4,0.1-0.9,0.3-1.3,0.4c-0.4,0.1-0.9,0.2-1.4,0.3c1.2,0.7,2.5,1.5,3.7,2.5s2.4,2.1,3.4,3.3c1,1.2,2,2.4,2.8,3.7s1.3,2.6,1.7,3.8
	h7.1v5.6H661v-5.5h8.4c-0.4-1.3-1-2.6-1.9-3.9s-1.9-2.6-3.1-3.8c-1.2-1.2-2.5-2.2-4.1-3.1c-1.5-0.9-3.1-1.5-4.8-1.8h-11.3v12.6h8.6
	v5.6h-25.7L627,296.4L627,296.4z M656.9,278.3c2.8,0,5.1-0.2,7-0.5s3.3-0.8,4.4-1.4c1.1-0.6,1.9-1.4,2.4-2.3c0.5-0.9,0.7-2,0.7-3.1
	c0-1.5-0.5-2.8-1.5-3.9c-1-1.1-2.7-2-4.9-2.6c-1.1-0.3-2.2-0.4-3.6-0.5c-1.4-0.1-2.8-0.1-4.4-0.1h-12.7v14.4H656.9z"/>
<g>
	<rect x="-87.9" y="254.3" class="st2" width="16.7" height="50.7"/>
	<rect id="XMLID_1_" x="-71.3" y="254.3" class="st3" width="24" height="50.7"/>
	<rect id="XMLID_2_" x="-54.6" y="254.3" class="st4" width="16.7" height="50.7"/>
</g>
</svg>
