<?xml version="1.0" encoding="utf-8"?>
<!-- Generator: Adobe Illustrator 19.0.0, SVG Export Plug-In . SVG Version: 6.00 Build 0)  -->
<!DOCTYPE svg PUBLIC "-//W3C//DTD SVG 1.1//EN" "http://www.w3.org/Graphics/SVG/1.1/DTD/svg11.dtd">
<svg version="1.1" id="Layer_2" xmlns="http://www.w3.org/2000/svg" xmlns:xlink="http://www.w3.org/1999/xlink" x="0px" y="0px"
	 viewBox="0 0 546.1 420" enable-background="new 0 0 546.1 420" xml:space="preserve">
<path id="XMLID_2_" fill="none" stroke="#FFFFFF" stroke-width="6" stroke-miterlimit="10" d="M463,131.1H188.1
	c-13.1,0-23.7-10.6-23.7-23.7v0c0-13.1,10.6-23.7,23.7-23.7H463c13.1,0,23.7,10.6,23.7,23.7v0C486.7,120.5,476.1,131.1,463,131.1z"
	/>
<path id="XMLID_4_" fill="none" stroke="#FFFFFF" stroke-width="6" stroke-miterlimit="10" d="M463,237.6H188.1
	c-13.1,0-23.7-10.6-23.7-23.7v0c0-13.1,10.6-23.7,23.7-23.7H463c13.1,0,23.7,10.6,23.7,23.7v0C486.7,227,476.1,237.6,463,237.6z"/>
<path id="XMLID_5_" fill="none" stroke="#FFFFFF" stroke-width="6" stroke-miterlimit="10" d="M463,342.9H188.1
	c-13.1,0-23.7-10.6-23.7-23.7v0c0-13.1,10.6-23.7,23.7-23.7H463c13.1,0,23.7,10.6,23.7,23.7v0C486.7,332.3,476.1,342.9,463,342.9z"
	/>
<path id="XMLID_8_" fill="none" stroke="#FFFFFF" stroke-width="6" stroke-miterlimit="10" d="M87.7,131.1h-1
	c-13.1,0-23.7-10.6-23.7-23.7v0c0-13.1,10.6-23.7,23.7-23.7h1c13.1,0,23.7,10.6,23.7,23.7v0C111.4,120.5,100.8,131.1,87.7,131.1z"/>
<path id="XMLID_7_" fill="none" stroke="#FFFFFF" stroke-width="6" stroke-miterlimit="10" d="M87.7,237.6h-1
	C73.6,237.6,63,227,63,213.9v0c0-13.1,10.6-23.7,23.7-23.7h1c13.1,0,23.7,10.6,23.7,23.7v0C111.4,227,100.8,237.6,87.7,237.6z"/>
<path id="XMLID_6_" fill="none" stroke="#FFFFFF" stroke-width="6" stroke-miterlimit="10" d="M87.7,342.9h-1
	c-13.1,0-23.7-10.6-23.7-23.7v0c0-13.1,10.6-23.7,23.7-23.7h1c13.1,0,23.7,10.6,23.7,23.7v0C111.4,332.3,100.8,342.9,87.7,342.9z"/>
</svg>
