<?xml version="1.0" encoding="utf-8"?>
<!-- Generator: Adobe Illustrator 19.0.0, SVG Export Plug-In . SVG Version: 6.00 Build 0)  -->
<!DOCTYPE svg PUBLIC "-//W3C//DTD SVG 1.1//EN" "http://www.w3.org/Graphics/SVG/1.1/DTD/svg11.dtd">
<svg version="1.1" xmlns="http://www.w3.org/2000/svg" xmlns:xlink="http://www.w3.org/1999/xlink" x="0px" y="0px"
	 viewBox="0 0 555.1 414" enable-background="new 0 0 555.1 414" xml:space="preserve">
<g id="Layer_1">
</g>
<g id="Layer_2" display="none">
	<path id="XMLID_2_" display="inline" fill="none" stroke="#FFFFFF" stroke-width="6" stroke-miterlimit="10" d="M474.3,130.4H199.5
		c-13.1,0-23.7-10.6-23.7-23.7v0c0-13.1,10.6-23.7,23.7-23.7h274.8c13.1,0,23.7,10.6,23.7,23.7v0C498,119.8,487.4,130.4,474.3,130.4
		z"/>
	<path id="XMLID_4_" display="inline" fill="none" stroke="#FFFFFF" stroke-width="6" stroke-miterlimit="10" d="M474.3,236.9H199.5
		c-13.1,0-23.7-10.6-23.7-23.7v0c0-13.1,10.6-23.7,23.7-23.7h274.8c13.1,0,23.7,10.6,23.7,23.7v0C498,226.3,487.4,236.9,474.3,236.9
		z"/>
	<path id="XMLID_5_" display="inline" fill="none" stroke="#FFFFFF" stroke-width="6" stroke-miterlimit="10" d="M474.3,342.2H199.5
		c-13.1,0-23.7-10.6-23.7-23.7v0c0-13.1,10.6-23.7,23.7-23.7h274.8c13.1,0,23.7,10.6,23.7,23.7v0C498,331.6,487.4,342.2,474.3,342.2
		z"/>
	<path id="XMLID_8_" display="inline" fill="none" stroke="#FFFFFF" stroke-width="6" stroke-miterlimit="10" d="M99.1,130.4h-1
		c-13.1,0-23.7-10.6-23.7-23.7v0C74.4,93.6,85,83,98.1,83h1c13.1,0,23.7,10.6,23.7,23.7v0C122.8,119.8,112.2,130.4,99.1,130.4z"/>
	<path id="XMLID_7_" display="inline" fill="none" stroke="#FFFFFF" stroke-width="6" stroke-miterlimit="10" d="M99.1,236.9h-1
		c-13.1,0-23.7-10.6-23.7-23.7v0c0-13.1,10.6-23.7,23.7-23.7h1c13.1,0,23.7,10.6,23.7,23.7v0C122.8,226.3,112.2,236.9,99.1,236.9z"
		/>
	<path id="XMLID_6_" display="inline" fill="none" stroke="#FFFFFF" stroke-width="6" stroke-miterlimit="10" d="M99.1,342.2h-1
		c-13.1,0-23.7-10.6-23.7-23.7v0c0-13.1,10.6-23.7,23.7-23.7h1c13.1,0,23.7,10.6,23.7,23.7v0C122.8,331.6,112.2,342.2,99.1,342.2z"
		/>
</g>
<g id="Layer_3">
	<polyline id="XMLID_13_" fill="none" stroke="#FFFFFF" stroke-width="6" stroke-miterlimit="10" points="214.7,326.4 74.9,361.6 
		74.9,99.1 214.7,63.9 214.7,118.8 	"/>
	<polyline id="XMLID_11_" fill="none" stroke="#FFFFFF" stroke-width="6" stroke-miterlimit="10" points="214.7,116.3 214.7,63.2 
		354.4,99.1 354.4,361.6 214.7,325.7 214.7,219.8 	"/>
	<polygon id="XMLID_10_" fill="none" stroke="#FFFFFF" stroke-width="6" stroke-miterlimit="10" points="494.2,326.4 354.4,361.6 
		354.4,99.1 494.2,63.9 	"/>
	<path id="XMLID_9_" fill="none" stroke="#FFFFFF" stroke-width="6" stroke-miterlimit="10" d="M294.6,161.4
		c0,29-52.5,95.9-52.5,95.9s-52.5-66.9-52.5-95.9s23.5-52.5,52.5-52.5S294.6,132.4,294.6,161.4z"/>
	<circle id="XMLID_12_" fill="none" stroke="#FFFFFF" stroke-width="6" stroke-miterlimit="10" cx="242.4" cy="163.6" r="23.7"/>
</g>
</svg>
